<?xml version="1.0" encoding="UTF-8"?>
<!--Generator: Apple Native CoreSVG 123-->
<!DOCTYPE svg
PUBLIC "-//W3C//DTD SVG 1.1//EN"
       "http://www.w3.org/Graphics/SVG/1.1/DTD/svg11.dtd">
<svg version="1.1" xmlns="http://www.w3.org/2000/svg" xmlns:xlink="http://www.w3.org/1999/xlink" width="3300" height="2200">
 <!--glyph: "uni100077.medium", point size: 100.000000, font version: "Version 15.0d7e11", template writer version: "5"-->
 <g id="Notes">
  <rect height="2200" id="artboard" style="fill:white;opacity:1" width="3300" x="0" y="0"/>
  <line id="" style="fill:none;stroke:black;opacity:1;stroke-width:0.5;" x1="263" x2="3036" y1="292" y2="292"/>
  <text style="stroke:none;fill:black;font-family:-apple-system,&quot;SF Pro Display&quot;,&quot;SF Pro Text&quot;,Helvetica,sans-serif;font-weight:bold;" transform="matrix(1 0 0 1 263 322)">Weight/Scale Variations</text>
  <text style="stroke:none;fill:black;font-family:-apple-system,&quot;SF Pro Display&quot;,&quot;SF Pro Text&quot;,Helvetica,sans-serif;text-anchor:middle;" transform="matrix(1 0 0 1 559.711 322)">Ultralight</text>
  <text style="stroke:none;fill:black;font-family:-apple-system,&quot;SF Pro Display&quot;,&quot;SF Pro Text&quot;,Helvetica,sans-serif;text-anchor:middle;" transform="matrix(1 0 0 1 856.422 322)">Thin</text>
  <text style="stroke:none;fill:black;font-family:-apple-system,&quot;SF Pro Display&quot;,&quot;SF Pro Text&quot;,Helvetica,sans-serif;text-anchor:middle;" transform="matrix(1 0 0 1 1153.13 322)">Light</text>
  <text style="stroke:none;fill:black;font-family:-apple-system,&quot;SF Pro Display&quot;,&quot;SF Pro Text&quot;,Helvetica,sans-serif;text-anchor:middle;" transform="matrix(1 0 0 1 1449.84 322)">Regular</text>
  <text style="stroke:none;fill:black;font-family:-apple-system,&quot;SF Pro Display&quot;,&quot;SF Pro Text&quot;,Helvetica,sans-serif;text-anchor:middle;" transform="matrix(1 0 0 1 1746.56 322)">Medium</text>
  <text style="stroke:none;fill:black;font-family:-apple-system,&quot;SF Pro Display&quot;,&quot;SF Pro Text&quot;,Helvetica,sans-serif;text-anchor:middle;" transform="matrix(1 0 0 1 2043.27 322)">Semibold</text>
  <text style="stroke:none;fill:black;font-family:-apple-system,&quot;SF Pro Display&quot;,&quot;SF Pro Text&quot;,Helvetica,sans-serif;text-anchor:middle;" transform="matrix(1 0 0 1 2339.98 322)">Bold</text>
  <text style="stroke:none;fill:black;font-family:-apple-system,&quot;SF Pro Display&quot;,&quot;SF Pro Text&quot;,Helvetica,sans-serif;text-anchor:middle;" transform="matrix(1 0 0 1 2636.69 322)">Heavy</text>
  <text style="stroke:none;fill:black;font-family:-apple-system,&quot;SF Pro Display&quot;,&quot;SF Pro Text&quot;,Helvetica,sans-serif;text-anchor:middle;" transform="matrix(1 0 0 1 2933.4 322)">Black</text>
  <line id="" style="fill:none;stroke:black;opacity:1;stroke-width:0.5;" x1="263" x2="3036" y1="1903" y2="1903"/>
  <g id="" transform="matrix(1 0 0 1 263 1933)">
   <path d="M 9.24805 0.830078 C 13.5547 0.830078 17.1387 -2.74414 17.1387 -7.05078 C 17.1387 -11.3574 13.5449 -14.9316 9.23828 -14.9316 C 4.94141 -14.9316 1.36719 -11.3574 1.36719 -7.05078 C 1.36719 -2.74414 4.95117 0.830078 9.24805 0.830078 Z M 9.24805 -0.654297 C 5.70312 -0.654297 2.87109 -3.49609 2.87109 -7.05078 C 2.87109 -10.6055 5.69336 -13.4473 9.23828 -13.4473 C 12.793 -13.4473 15.6348 -10.6055 15.6445 -7.05078 C 15.6543 -3.49609 12.8027 -0.654297 9.24805 -0.654297 Z M 9.22852 -3.42773 C 9.69727 -3.42773 9.9707 -3.74023 9.9707 -4.25781 L 9.9707 -6.31836 L 12.1973 -6.31836 C 12.6953 -6.31836 13.0371 -6.57227 13.0371 -7.04102 C 13.0371 -7.51953 12.7148 -7.7832 12.1973 -7.7832 L 9.9707 -7.7832 L 9.9707 -10.0098 C 9.9707 -10.5273 9.69727 -10.8496 9.22852 -10.8496 C 8.75977 -10.8496 8.50586 -10.5078 8.50586 -10.0098 L 8.50586 -7.7832 L 6.29883 -7.7832 C 5.78125 -7.7832 5.44922 -7.51953 5.44922 -7.04102 C 5.44922 -6.57227 5.80078 -6.31836 6.29883 -6.31836 L 8.50586 -6.31836 L 8.50586 -4.25781 C 8.50586 -3.75977 8.75977 -3.42773 9.22852 -3.42773 Z"/>
  </g>
  <g id="" transform="matrix(1 0 0 1 281.506 1933)">
   <path d="M 11.709 2.91016 C 17.1582 2.91016 21.6699 -1.60156 21.6699 -7.05078 C 21.6699 -12.4902 17.1484 -17.0117 11.6992 -17.0117 C 6.25977 -17.0117 1.74805 -12.4902 1.74805 -7.05078 C 1.74805 -1.60156 6.26953 2.91016 11.709 2.91016 Z M 11.709 1.25 C 7.09961 1.25 3.41797 -2.44141 3.41797 -7.05078 C 3.41797 -11.6504 7.08984 -15.3516 11.6992 -15.3516 C 16.3086 -15.3516 20 -11.6504 20.0098 -7.05078 C 20.0195 -2.44141 16.3184 1.25 11.709 1.25 Z M 11.6895 -2.41211 C 12.207 -2.41211 12.5195 -2.77344 12.5195 -3.33984 L 12.5195 -6.23047 L 15.5762 -6.23047 C 16.123 -6.23047 16.5039 -6.51367 16.5039 -7.03125 C 16.5039 -7.55859 16.1426 -7.86133 15.5762 -7.86133 L 12.5195 -7.86133 L 12.5195 -10.9277 C 12.5195 -11.5039 12.207 -11.8555 11.6895 -11.8555 C 11.1719 -11.8555 10.8789 -11.4844 10.8789 -10.9277 L 10.8789 -7.86133 L 7.83203 -7.86133 C 7.26562 -7.86133 6.89453 -7.55859 6.89453 -7.03125 C 6.89453 -6.51367 7.28516 -6.23047 7.83203 -6.23047 L 10.8789 -6.23047 L 10.8789 -3.33984 C 10.8789 -2.79297 11.1719 -2.41211 11.6895 -2.41211 Z"/>
  </g>
  <g id="" transform="matrix(1 0 0 1 304.924 1933)">
   <path d="M 14.9707 5.67383 C 21.9336 5.67383 27.6953 -0.078125 27.6953 -7.04102 C 27.6953 -14.0039 21.9238 -19.7559 14.9609 -19.7559 C 8.00781 -19.7559 2.25586 -14.0039 2.25586 -7.04102 C 2.25586 -0.078125 8.01758 5.67383 14.9707 5.67383 Z M 14.9707 3.85742 C 8.93555 3.85742 4.08203 -1.00586 4.08203 -7.04102 C 4.08203 -13.0762 8.92578 -17.9395 14.9609 -17.9395 C 21.0059 -17.9395 25.8594 -13.0762 25.8691 -7.04102 C 25.8789 -1.00586 21.0156 3.85742 14.9707 3.85742 Z M 14.9512 -1.06445 C 15.5176 -1.06445 15.8691 -1.45508 15.8691 -2.06055 L 15.8691 -6.13281 L 20.1074 -6.13281 C 20.6934 -6.13281 21.1133 -6.46484 21.1133 -7.02148 C 21.1133 -7.59766 20.7227 -7.93945 20.1074 -7.93945 L 15.8691 -7.93945 L 15.8691 -12.1875 C 15.8691 -12.8027 15.5176 -13.1934 14.9512 -13.1934 C 14.3848 -13.1934 14.0625 -12.7832 14.0625 -12.1875 L 14.0625 -7.93945 L 9.83398 -7.93945 C 9.21875 -7.93945 8.80859 -7.59766 8.80859 -7.02148 C 8.80859 -6.46484 9.23828 -6.13281 9.83398 -6.13281 L 14.0625 -6.13281 L 14.0625 -2.06055 C 14.0625 -1.47461 14.3848 -1.06445 14.9512 -1.06445 Z"/>
  </g>
  <text style="stroke:none;fill:black;font-family:-apple-system,&quot;SF Pro Display&quot;,&quot;SF Pro Text&quot;,Helvetica,sans-serif;font-weight:bold;" transform="matrix(1 0 0 1 263 1953)">Design Variations</text>
  <text style="stroke:none;fill:black;font-family:-apple-system,&quot;SF Pro Display&quot;,&quot;SF Pro Text&quot;,Helvetica,sans-serif;" transform="matrix(1 0 0 1 263 1971)">Symbols are supported in up to nine weights and three scales.</text>
  <text style="stroke:none;fill:black;font-family:-apple-system,&quot;SF Pro Display&quot;,&quot;SF Pro Text&quot;,Helvetica,sans-serif;" transform="matrix(1 0 0 1 263 1989)">For optimal layout with text and other symbols, vertically align</text>
  <text style="stroke:none;fill:black;font-family:-apple-system,&quot;SF Pro Display&quot;,&quot;SF Pro Text&quot;,Helvetica,sans-serif;" transform="matrix(1 0 0 1 263 2007)">symbols with the adjacent text.</text>
  <rect height="14" id="" style="fill:#00AEEF;stroke:none;opacity:0.4;" width="3" x="776" y="1919"/>
  <g id="" transform="matrix(1 0 0 1 779 1933)">
   <path d="M 10.5273 0 L 12.373 0 L 7.17773 -14.0918 L 5.43945 -14.0918 L 0.244141 0 L 2.08984 0 L 3.50586 -4.0332 L 9.11133 -4.0332 Z M 6.2793 -11.9531 L 6.33789 -11.9531 L 8.59375 -5.52734 L 4.02344 -5.52734 Z"/>
  </g>
  <rect height="14" id="" style="fill:#00AEEF;stroke:none;opacity:0.4;" width="3" x="791.617" y="1919"/>
  <text style="stroke:none;fill:black;font-family:-apple-system,&quot;SF Pro Display&quot;,&quot;SF Pro Text&quot;,Helvetica,sans-serif;font-weight:bold;" transform="matrix(1 0 0 1 776 1953)">Margins</text>
  <text style="stroke:none;fill:black;font-family:-apple-system,&quot;SF Pro Display&quot;,&quot;SF Pro Text&quot;,Helvetica,sans-serif;" transform="matrix(1 0 0 1 776 1971)">Leading and trailing margins on the left and right side of each symbol</text>
  <text style="stroke:none;fill:black;font-family:-apple-system,&quot;SF Pro Display&quot;,&quot;SF Pro Text&quot;,Helvetica,sans-serif;" transform="matrix(1 0 0 1 776 1989)">can be adjusted by modifying the width of the blue rectangles.</text>
  <text style="stroke:none;fill:black;font-family:-apple-system,&quot;SF Pro Display&quot;,&quot;SF Pro Text&quot;,Helvetica,sans-serif;" transform="matrix(1 0 0 1 776 2007)">Modifications are automatically applied proportionally to all</text>
  <text style="stroke:none;fill:black;font-family:-apple-system,&quot;SF Pro Display&quot;,&quot;SF Pro Text&quot;,Helvetica,sans-serif;" transform="matrix(1 0 0 1 776 2025)">scales and weights.</text>
  <g id="" transform="matrix(1 0 0 1 1289 1933)">
   <path d="M 2.83203 3.11523 L 4.375 4.6582 C 5.22461 5.48828 6.19141 5.41992 7.06055 4.46289 L 17.2754 -6.66016 C 17.7051 -6.36719 18.0957 -6.37695 18.5645 -6.47461 L 19.6094 -6.68945 L 20.3027 -5.99609 L 20.2539 -5.47852 C 20.1855 -4.95117 20.3516 -4.53125 20.8496 -4.0332 L 21.6602 -3.22266 C 22.168 -2.71484 22.8223 -2.68555 23.3008 -3.16406 L 26.5527 -6.41602 C 27.0312 -6.89453 27.0117 -7.54883 26.5039 -8.05664 L 25.6836 -8.87695 C 25.1855 -9.375 24.7754 -9.55078 24.2383 -9.47266 L 23.7109 -9.41406 L 23.0566 -10.0781 L 23.3398 -11.2207 C 23.4863 -11.7871 23.3398 -12.2559 22.7148 -12.8613 L 20.3027 -15.2539 C 16.7578 -18.7793 12.2266 -18.6719 9.11133 -15.5371 C 8.69141 -15.1074 8.64258 -14.5215 8.91602 -14.0918 C 9.15039 -13.7207 9.62891 -13.4961 10.2734 -13.6621 C 11.7871 -14.043 13.3008 -13.9258 14.7852 -12.9199 L 14.1602 -11.3379 C 13.9258 -10.752 13.9453 -10.2734 14.1797 -9.83398 L 3.01758 0.439453 C 2.08008 1.30859 1.97266 2.25586 2.83203 3.11523 Z M 10.6738 -15.1465 C 13.3398 -17.1387 16.6504 -16.8262 19.0527 -14.4141 L 21.6797 -11.8066 C 21.9141 -11.5723 21.9434 -11.3867 21.8848 -11.0938 L 21.5039 -9.53125 L 23.0762 -7.95898 L 24.043 -8.04688 C 24.3262 -8.07617 24.4141 -8.05664 24.6387 -7.83203 L 25.2637 -7.20703 L 22.5098 -4.46289 L 21.8848 -5.07812 C 21.6602 -5.30273 21.6406 -5.40039 21.6699 -5.68359 L 21.7578 -6.64062 L 20.1953 -8.20312 L 18.5742 -7.89062 C 18.291 -7.83203 18.1445 -7.83203 17.9102 -8.07617 L 15.7324 -10.2539 C 15.5078 -10.4883 15.4785 -10.625 15.6055 -10.9473 L 16.5527 -13.2227 C 14.9512 -14.7559 12.8418 -15.6055 10.8008 -14.9512 C 10.7129 -14.9219 10.6445 -14.9414 10.6152 -14.9805 C 10.5859 -15.0293 10.5859 -15.0781 10.6738 -15.1465 Z M 4.10156 2.41211 C 3.61328 1.91406 3.78906 1.61133 4.12109 1.30859 L 15.0781 -8.80859 L 16.3086 -7.57812 L 6.15234 3.34961 C 5.84961 3.68164 5.46875 3.7793 5.06836 3.37891 Z"/>
  </g>
  <text style="stroke:none;fill:black;font-family:-apple-system,&quot;SF Pro Display&quot;,&quot;SF Pro Text&quot;,Helvetica,sans-serif;font-weight:bold;" transform="matrix(1 0 0 1 1289 1953)">Exporting</text>
  <text style="stroke:none;fill:black;font-family:-apple-system,&quot;SF Pro Display&quot;,&quot;SF Pro Text&quot;,Helvetica,sans-serif;" transform="matrix(1 0 0 1 1289 1971)">Symbols should be outlined when exporting to ensure the</text>
  <text style="stroke:none;fill:black;font-family:-apple-system,&quot;SF Pro Display&quot;,&quot;SF Pro Text&quot;,Helvetica,sans-serif;" transform="matrix(1 0 0 1 1289 1989)">design is preserved when submitting to Xcode.</text>
  <text id="template-version" style="stroke:none;fill:black;font-family:-apple-system,&quot;SF Pro Display&quot;,&quot;SF Pro Text&quot;,Helvetica,sans-serif;text-anchor:end;" transform="matrix(1 0 0 1 3036 1933)">Template v.1.0</text>
  <text style="stroke:none;fill:black;font-family:-apple-system,&quot;SF Pro Display&quot;,&quot;SF Pro Text&quot;,Helvetica,sans-serif;text-anchor:end;" transform="matrix(1 0 0 1 3036 1951)">Generated from arrow.up.circle.fill</text>
  <text style="stroke:none;fill:black;font-family:-apple-system,&quot;SF Pro Display&quot;,&quot;SF Pro Text&quot;,Helvetica,sans-serif;text-anchor:end;" transform="matrix(1 0 0 1 3036 1969)">Typeset at 100 points</text>
  <text style="stroke:none;fill:black;font-family:-apple-system,&quot;SF Pro Display&quot;,&quot;SF Pro Text&quot;,Helvetica,sans-serif;" transform="matrix(1 0 0 1 263 726)">Small</text>
  <text style="stroke:none;fill:black;font-family:-apple-system,&quot;SF Pro Display&quot;,&quot;SF Pro Text&quot;,Helvetica,sans-serif;" transform="matrix(1 0 0 1 263 1156)">Medium</text>
  <text style="stroke:none;fill:black;font-family:-apple-system,&quot;SF Pro Display&quot;,&quot;SF Pro Text&quot;,Helvetica,sans-serif;" transform="matrix(1 0 0 1 263 1586)">Large</text>
 </g>
 <g id="Guides">
  <g id="H-reference" style="fill:#27AAE1;stroke:none;" transform="matrix(1 0 0 1 339 696)">
   <path d="M 54.9316 0 L 57.666 0 L 30.5664 -70.459 L 28.0762 -70.459 L 0.976562 0 L 3.66211 0 L 12.9395 -24.4629 L 45.7031 -24.4629 Z M 29.1992 -67.0898 L 29.4434 -67.0898 L 44.8242 -26.709 L 13.8184 -26.709 Z"/>
  </g>
  <line id="Baseline-S" style="fill:none;stroke:#27AAE1;opacity:1;stroke-width:0.577;" x1="263" x2="3036" y1="696" y2="696"/>
  <line id="Capline-S" style="fill:none;stroke:#27AAE1;opacity:1;stroke-width:0.577;" x1="263" x2="3036" y1="625.541" y2="625.541"/>
  <g id="H-reference" style="fill:#27AAE1;stroke:none;" transform="matrix(1 0 0 1 339 1126)">
   <path d="M 54.9316 0 L 57.666 0 L 30.5664 -70.459 L 28.0762 -70.459 L 0.976562 0 L 3.66211 0 L 12.9395 -24.4629 L 45.7031 -24.4629 Z M 29.1992 -67.0898 L 29.4434 -67.0898 L 44.8242 -26.709 L 13.8184 -26.709 Z"/>
  </g>
  <line id="Baseline-M" style="fill:none;stroke:#27AAE1;opacity:1;stroke-width:0.577;" x1="263" x2="3036" y1="1126" y2="1126"/>
  <line id="Capline-M" style="fill:none;stroke:#27AAE1;opacity:1;stroke-width:0.577;" x1="263" x2="3036" y1="1055.54" y2="1055.54"/>
  <g id="H-reference" style="fill:#27AAE1;stroke:none;" transform="matrix(1 0 0 1 339 1556)">
   <path d="M 54.9316 0 L 57.666 0 L 30.5664 -70.459 L 28.0762 -70.459 L 0.976562 0 L 3.66211 0 L 12.9395 -24.4629 L 45.7031 -24.4629 Z M 29.1992 -67.0898 L 29.4434 -67.0898 L 44.8242 -26.709 L 13.8184 -26.709 Z"/>
  </g>
  <line id="Baseline-L" style="fill:none;stroke:#27AAE1;opacity:1;stroke-width:0.577;" x1="263" x2="3036" y1="1556" y2="1556"/>
  <line id="Capline-L" style="fill:none;stroke:#27AAE1;opacity:1;stroke-width:0.577;" x1="263" x2="3036" y1="1485.54" y2="1485.54"/>
  <rect height="119.336" id="left-margin" style="fill:#00AEEF;stroke:none;opacity:0.4;" width="8.74023" x="1391.3" y="1030.79"/>
  <rect height="119.336" id="right-margin" style="fill:#00AEEF;stroke:none;opacity:0.4;" width="8.74023" x="1499.65" y="1030.79"/>
 </g>
 <g id="Symbols">
  <g id="Black-L" transform="matrix(1 0 0 1 2854.05 1556)">
   <path d="M 79.3457 32.8613 C 116.748 32.8613 147.412 2.19727 147.412 -35.2051 C 147.412 -72.6074 116.748 -103.271 79.2969 -103.271 C 41.8945 -103.271 11.2793 -72.6074 11.2793 -35.2051 C 11.2793 2.19727 41.9434 32.8613 79.3457 32.8613 Z M 79.3457 -70.4102 C 82.4219 -70.4102 84.9121 -69.2383 86.9141 -67.0898 L 108.154 -44.3848 C 109.912 -42.4316 110.596 -40.8203 110.596 -38.3789 C 110.596 -34.082 107.422 -31.0059 102.881 -31.0059 C 100.732 -31.0059 98.4863 -32.0312 97.1191 -33.5938 L 91.4551 -40.2344 L 87.5977 -46.2891 L 88.4766 -33.3984 L 88.4766 -8.54492 C 88.4766 -3.61328 84.4727 -0.0488281 79.3457 -0.0488281 C 74.2188 -0.0488281 70.2148 -3.61328 70.2148 -8.54492 L 70.2148 -33.3984 L 71.1426 -46.2402 L 67.334 -40.4785 L 61.5234 -33.5938 C 60.3027 -32.0312 58.0078 -31.0059 55.8105 -31.0059 C 51.2695 -31.0059 48.0957 -34.082 48.0957 -38.3789 C 48.0957 -40.8203 48.7305 -42.4316 50.5371 -44.3848 L 71.7773 -67.0898 C 73.8281 -69.2871 76.2695 -70.4102 79.3457 -70.4102 Z"/>
  </g>
  <g id="Heavy-L" transform="matrix(1 0 0 1 2558.39 1556)">
   <path d="M 78.2715 31.7871 C 115.088 31.7871 145.312 1.61133 145.312 -35.2051 C 145.312 -72.0215 115.039 -102.197 78.2715 -102.197 C 41.4551 -102.197 11.2793 -72.0215 11.2793 -35.2051 C 11.2793 1.61133 41.5039 31.7871 78.2715 31.7871 Z M 78.2715 -70.3613 C 80.957 -70.3613 83.1055 -69.3848 84.9121 -67.4316 L 106.738 -44.4824 C 108.252 -42.8223 108.887 -41.3574 108.887 -39.209 C 108.887 -35.3516 106.055 -32.5684 102.002 -32.5684 C 100 -32.5684 98.0469 -33.4473 96.875 -34.8145 L 90.1855 -42.2363 L 85.5469 -48.8281 L 86.3281 -35.8398 L 86.3281 -7.61719 C 86.3281 -3.22266 82.8125 -0.0976562 78.2715 -0.0976562 C 73.7793 -0.0976562 70.2637 -3.22266 70.2637 -7.61719 L 70.2637 -35.8398 L 71.0938 -48.7793 L 66.4551 -42.4316 L 59.7168 -34.8145 C 58.5938 -33.4473 56.5918 -32.5684 54.5898 -32.5684 C 50.5371 -32.5684 47.7051 -35.3516 47.7051 -39.209 C 47.7051 -41.3574 48.291 -42.8223 49.8535 -44.4824 L 71.6797 -67.4316 C 73.5352 -69.4336 75.6348 -70.3613 78.2715 -70.3613 Z"/>
  </g>
  <g id="Bold-L" transform="matrix(1 0 0 1 2262.88 1556)">
   <path d="M 77.0996 30.6152 C 113.232 30.6152 142.92 0.878906 142.92 -35.2051 C 142.92 -71.3379 113.184 -101.025 77.0508 -101.025 C 40.9668 -101.025 11.2793 -71.3379 11.2793 -35.2051 C 11.2793 0.878906 41.0156 30.6152 77.0996 30.6152 Z M 77.0996 -70.3613 C 79.2969 -70.3613 81.0547 -69.5312 82.6172 -67.8711 L 105.127 -44.6289 C 106.396 -43.2617 106.982 -41.9434 106.982 -40.0879 C 106.982 -36.7188 104.492 -34.2773 100.977 -34.2773 C 99.2676 -34.2773 97.6074 -35.0098 96.5332 -36.2305 L 88.8184 -44.4824 L 83.252 -51.6602 L 83.8867 -38.5742 L 83.8867 -6.54297 C 83.8867 -2.73438 80.957 -0.0976562 77.0996 -0.0976562 C 73.2422 -0.0976562 70.3125 -2.73438 70.3125 -6.54297 L 70.3125 -38.5742 L 70.9961 -51.6113 L 65.4785 -44.5801 L 57.666 -36.2305 C 56.6895 -35.0586 54.9805 -34.2773 53.2715 -34.2773 C 49.7559 -34.2773 47.3145 -36.7188 47.3145 -40.0879 C 47.3145 -41.9434 47.8027 -43.2617 49.0723 -44.6289 L 71.582 -67.8711 C 73.1934 -69.5801 74.9512 -70.3613 77.0996 -70.3613 Z"/>
  </g>
  <g id="Semibold-L" transform="matrix(1 0 0 1 1966.97 1556)">
   <path d="M 76.2695 29.7852 C 111.914 29.7852 141.309 0.439453 141.309 -35.2051 C 141.309 -70.8496 111.865 -100.244 76.2695 -100.244 C 40.625 -100.244 11.2793 -70.8496 11.2793 -35.2051 C 11.2793 0.439453 40.6738 29.7852 76.2695 29.7852 Z M 76.2695 -70.3125 C 78.125 -70.3125 79.6387 -69.6289 81.0547 -68.1641 L 104.053 -44.6777 C 105.078 -43.5547 105.664 -42.334 105.664 -40.7227 C 105.664 -37.6953 103.418 -35.4492 100.293 -35.4492 C 98.7305 -35.4492 97.2656 -36.1328 96.3379 -37.1582 L 87.8418 -45.9961 L 81.6406 -53.6621 L 82.2266 -40.4297 L 82.2266 -5.76172 C 82.2266 -2.44141 79.6875 -0.0976562 76.2695 -0.0976562 C 72.9004 -0.0976562 70.3613 -2.44141 70.3613 -5.76172 L 70.3613 -40.4297 L 70.9473 -53.5645 L 64.7949 -46.0938 L 56.2988 -37.1582 C 55.3711 -36.1816 53.9062 -35.4492 52.3438 -35.4492 C 49.2188 -35.4492 46.9727 -37.6953 46.9727 -40.7227 C 46.9727 -42.334 47.4609 -43.5547 48.584 -44.6777 L 71.5332 -68.1641 C 72.998 -69.6777 74.4629 -70.3125 76.2695 -70.3125 Z"/>
  </g>
  <g id="Medium-L" transform="matrix(1 0 0 1 1670.87 1556)">
   <path d="M 75.6836 29.1992 C 110.938 29.1992 140.088 0.0488281 140.088 -35.2051 C 140.088 -70.459 110.889 -99.6094 75.6348 -99.6094 C 40.3809 -99.6094 11.2793 -70.459 11.2793 -35.2051 C 11.2793 0.0488281 40.3809 29.1992 75.6836 29.1992 Z M 75.6836 -70.3125 C 77.2949 -70.3125 78.6133 -69.6777 79.8828 -68.4082 L 103.223 -44.7754 C 104.102 -43.75 104.639 -42.627 104.639 -41.2109 C 104.639 -38.4277 102.588 -36.3281 99.7559 -36.3281 C 98.3398 -36.3281 97.0215 -36.9629 96.1426 -37.8906 L 87.1582 -47.168 L 80.4199 -55.127 L 80.957 -41.8457 L 80.957 -5.22461 C 80.957 -2.19727 78.7109 -0.0976562 75.6836 -0.0976562 C 72.6562 -0.0976562 70.4102 -2.19727 70.4102 -5.22461 L 70.4102 -41.8457 L 70.9473 -55.0781 L 64.3066 -47.2168 L 55.2246 -37.8906 C 54.3945 -37.0117 53.0762 -36.3281 51.6113 -36.3281 C 48.7793 -36.3281 46.7773 -38.4277 46.7773 -41.2109 C 46.7773 -42.627 47.2168 -43.75 48.1934 -44.7754 L 71.4844 -68.4082 C 72.8027 -69.7266 74.1211 -70.3125 75.6836 -70.3125 Z"/>
  </g>
  <g id="Regular-L" transform="matrix(1 0 0 1 1374.97 1556)">
   <path d="M 74.8535 28.3691 C 109.668 28.3691 138.477 -0.390625 138.477 -35.2051 C 138.477 -70.0195 109.619 -98.7793 74.8047 -98.7793 C 40.0391 -98.7793 11.2793 -70.0195 11.2793 -35.2051 C 11.2793 -0.390625 40.0879 28.3691 74.8535 28.3691 Z M 74.8535 -70.3125 C 76.1719 -70.3125 77.1973 -69.7754 78.3691 -68.6523 L 102.1 -44.873 C 102.832 -44.043 103.32 -43.0664 103.32 -41.7969 C 103.32 -39.4043 101.514 -37.5488 99.0723 -37.5488 C 97.8027 -37.5488 96.7285 -38.0371 95.9473 -38.8184 L 86.1816 -48.7305 L 78.8574 -57.0801 L 79.2969 -43.75 L 79.2969 -4.49219 C 79.2969 -1.9043 77.4902 -0.0976562 74.8535 -0.0976562 C 72.3145 -0.0976562 70.4102 -1.9043 70.4102 -4.49219 L 70.4102 -43.75 L 70.8984 -56.9824 L 63.623 -48.7305 L 53.8574 -38.8184 C 53.0762 -38.0859 51.9531 -37.5488 50.6836 -37.5488 C 48.2422 -37.5488 46.4844 -39.4043 46.4844 -41.7969 C 46.4844 -43.0664 46.875 -44.043 47.6562 -44.873 L 71.4355 -68.6523 C 72.6074 -69.8242 73.6328 -70.3125 74.8535 -70.3125 Z"/>
  </g>
  <g id="Light-L" transform="matrix(1 0 0 1 1079.18 1556)">
   <path d="M 73.9258 27.4902 C 108.301 27.4902 136.621 -0.830078 136.621 -35.1562 C 136.621 -69.5312 108.252 -97.8516 73.9258 -97.8516 C 39.5508 -97.8516 11.2793 -69.5312 11.2793 -35.1562 C 11.2793 -0.830078 39.5996 27.4902 73.9258 27.4902 Z M 73.9258 -69.873 C 74.9023 -69.873 75.6836 -69.5312 76.5625 -68.7012 L 101.123 -44.0918 C 101.709 -43.457 102.1 -42.6758 102.1 -41.748 C 102.1 -39.8926 100.684 -38.4766 98.8281 -38.4766 C 97.8516 -38.4766 97.0215 -38.8672 96.3867 -39.502 L 84.8633 -51.123 L 77.0508 -59.5703 L 77.3926 -47.9004 L 77.3926 -3.85742 C 77.3926 -1.80664 75.9766 -0.488281 73.9258 -0.488281 C 71.9238 -0.488281 70.5078 -1.80664 70.5078 -3.85742 L 70.5078 -47.9004 L 70.8496 -59.4727 L 63.0859 -51.123 L 51.5625 -39.502 C 50.9277 -38.916 50.0977 -38.4766 49.1211 -38.4766 C 47.2168 -38.4766 45.8984 -39.8926 45.8984 -41.748 C 45.8984 -42.6758 46.1914 -43.457 46.7773 -44.0918 L 71.3379 -68.7012 C 72.2168 -69.5312 72.998 -69.873 73.9258 -69.873 Z"/>
  </g>
  <g id="Thin-L" transform="matrix(1 0 0 1 783.693 1556)">
   <path d="M 72.7051 26.3184 C 106.494 26.3184 134.18 -1.36719 134.18 -35.1074 C 134.18 -68.8965 106.494 -96.582 72.7051 -96.582 C 38.9648 -96.582 11.2793 -68.8965 11.2793 -35.1074 C 11.2793 -1.36719 38.9648 26.3184 72.7051 26.3184 Z M 72.7051 -69.3359 C 73.2422 -69.3359 73.7305 -69.1406 74.2188 -68.7012 L 99.8535 -43.1152 C 100.195 -42.627 100.439 -42.2363 100.439 -41.6504 C 100.439 -40.5762 99.6094 -39.7461 98.4863 -39.7461 C 97.9004 -39.7461 97.4609 -39.9414 97.0215 -40.4297 L 83.1543 -54.2969 L 74.6582 -62.8418 L 74.8535 -53.418 L 74.8535 -3.07617 C 74.8535 -1.75781 74.0234 -0.976562 72.7051 -0.976562 C 71.4844 -0.976562 70.6055 -1.75781 70.6055 -3.07617 L 70.6055 -53.418 L 70.8008 -62.793 L 62.3535 -54.2969 L 48.5352 -40.4297 C 48.0469 -39.9902 47.6562 -39.7461 47.0703 -39.7461 C 45.8984 -39.7461 45.1172 -40.5762 45.1172 -41.6504 C 45.1172 -42.2363 45.3125 -42.627 45.6543 -43.1152 L 71.2402 -68.7012 C 71.6797 -69.1406 72.2168 -69.3359 72.7051 -69.3359 Z"/>
  </g>
  <g id="Ultralight-L" transform="matrix(1 0 0 1 487.616 1556)">
   <path d="M 72.1191 25.7324 C 105.566 25.7324 132.91 -1.61133 132.91 -35.1074 C 132.91 -68.5547 105.566 -95.8984 72.1191 -95.8984 C 38.623 -95.8984 11.2793 -68.5547 11.2793 -35.1074 C 11.2793 -1.61133 38.623 25.7324 72.1191 25.7324 Z M 72.1191 -69.0918 C 72.4121 -69.0918 72.7051 -68.9453 73.0469 -68.75 L 99.1699 -42.5781 C 99.4629 -42.2363 99.5605 -41.9922 99.5605 -41.6016 C 99.5605 -40.918 99.0723 -40.4297 98.291 -40.4297 C 97.9004 -40.4297 97.6562 -40.5273 97.3145 -40.8691 L 82.2754 -55.9082 L 73.4375 -64.5508 L 73.5352 -56.25 L 73.5352 -2.63672 C 73.5352 -1.70898 73.0469 -1.2207 72.1191 -1.2207 C 71.2402 -1.2207 70.6543 -1.70898 70.6543 -2.63672 L 70.6543 -56.25 L 70.8008 -64.4531 L 62.0117 -55.9082 L 46.9727 -40.8691 C 46.582 -40.5273 46.3867 -40.4297 45.9961 -40.4297 C 45.2148 -40.4297 44.6777 -40.918 44.6777 -41.6016 C 44.6777 -41.9922 44.8242 -42.2363 45.1172 -42.5781 L 71.1426 -68.75 C 71.3867 -68.9453 71.7773 -69.0918 72.1191 -69.0918 Z"/>
  </g>
  <g id="Black-M" transform="matrix(1 0 0 1 2870.97 1126)">
   <path d="M 62.4023 18.457 C 91.9922 18.457 116.113 -5.61523 116.113 -35.2051 C 116.113 -64.7949 91.9922 -88.8672 62.4023 -88.8672 C 32.8125 -88.8672 8.74023 -64.7949 8.74023 -35.2051 C 8.74023 -5.61523 32.8125 18.457 62.4023 18.457 Z M 62.4023 -62.3047 C 65.1855 -62.3047 67.4805 -61.2793 69.1406 -59.4238 L 85.2051 -41.748 C 86.8652 -39.9902 87.3535 -38.6719 87.3535 -36.5234 C 87.3535 -32.9102 84.7168 -30.4199 80.8105 -30.4199 C 79.0039 -30.4199 77.0508 -31.2988 75.9277 -32.666 L 71.8262 -37.6953 L 69.7266 -41.6992 L 70.459 -32.7637 L 70.459 -15.5273 C 70.459 -11.2305 66.8945 -8.1543 62.4023 -8.1543 C 57.959 -8.1543 54.3457 -11.2305 54.3457 -15.5273 L 54.3457 -32.7637 L 55.1758 -41.6992 L 53.0762 -37.9395 L 48.9258 -32.666 C 47.8516 -31.2988 45.8984 -30.4199 43.9941 -30.4199 C 40.1367 -30.4199 37.5 -32.9102 37.5 -36.5234 C 37.5 -38.6719 37.9883 -39.9902 39.6484 -41.748 L 55.6641 -59.4238 C 57.373 -61.2793 59.6191 -62.3047 62.4023 -62.3047 Z"/>
  </g>
  <g id="Heavy-M" transform="matrix(1 0 0 1 2575.19 1126)">
   <path d="M 61.5234 17.5781 C 90.5273 17.5781 114.258 -6.15234 114.258 -35.2051 C 114.258 -64.2578 90.5273 -87.9883 61.4746 -87.9883 C 32.4707 -87.9883 8.74023 -64.2578 8.74023 -35.2051 C 8.74023 -6.15234 32.4707 17.5781 61.5234 17.5781 Z M 61.5234 -62.3535 C 63.916 -62.3535 65.8691 -61.4746 67.3828 -59.8145 L 83.8867 -42.0898 C 85.3027 -40.5762 85.791 -39.3555 85.791 -37.4512 C 85.791 -34.1309 83.3984 -31.8359 79.8828 -31.8359 C 78.2227 -31.8359 76.5137 -32.6172 75.4883 -33.8379 L 70.8008 -39.2578 L 67.9199 -43.8477 L 68.6035 -34.3262 L 68.6035 -14.6484 C 68.6035 -10.791 65.4785 -8.05664 61.5234 -8.05664 C 57.5195 -8.05664 54.3945 -10.791 54.3945 -14.6484 L 54.3945 -34.3262 L 55.127 -43.7988 L 52.2461 -39.4531 L 47.5098 -33.8379 C 46.5332 -32.6172 44.8242 -31.8359 43.1152 -31.8359 C 39.5996 -31.8359 37.207 -34.1309 37.207 -37.4512 C 37.207 -39.3555 37.6953 -40.5762 39.1113 -42.0898 L 55.6152 -59.8145 C 57.1777 -61.5234 59.1309 -62.3535 61.5234 -62.3535 Z"/>
  </g>
  <g id="Bold-M" transform="matrix(1 0 0 1 2279.5 1126)">
   <path d="M 60.498 16.5039 C 88.8672 16.5039 112.207 -6.78711 112.207 -35.2051 C 112.207 -63.623 88.8672 -86.9629 60.4492 -86.9629 C 32.0312 -86.9629 8.74023 -63.623 8.74023 -35.2051 C 8.74023 -6.78711 32.0801 16.5039 60.498 16.5039 Z M 60.498 -62.4512 C 62.4512 -62.4512 64.0625 -61.7188 65.4297 -60.2539 L 82.4707 -42.4316 C 83.5938 -41.2109 84.082 -40.0879 84.082 -38.4766 C 84.082 -35.5469 81.9336 -33.4473 78.8574 -33.4473 C 77.3926 -33.4473 75.9277 -34.082 75 -35.1562 L 69.6777 -41.0156 L 65.918 -46.1914 L 66.5039 -36.084 L 66.5039 -13.623 C 66.5039 -10.3516 63.8672 -7.95898 60.498 -7.95898 C 57.0801 -7.95898 54.4434 -10.3516 54.4434 -13.623 L 54.4434 -36.084 L 55.0781 -46.1914 L 51.3184 -41.1133 L 45.9473 -35.1562 C 45.1172 -34.1309 43.6035 -33.4473 42.0898 -33.4473 C 39.0625 -33.4473 36.9141 -35.5469 36.9141 -38.4766 C 36.9141 -40.0879 37.3535 -41.2109 38.5254 -42.4316 L 55.5664 -60.2539 C 56.9336 -61.7676 58.5449 -62.4512 60.498 -62.4512 Z"/>
  </g>
  <g id="Semibold-M" transform="matrix(1 0 0 1 1983.5 1126)">
   <path d="M 59.7656 15.8203 C 87.7441 15.8203 110.791 -7.22656 110.791 -35.2051 C 110.791 -63.1836 87.6953 -86.2793 59.7656 -86.2793 C 31.7871 -86.2793 8.74023 -63.1836 8.74023 -35.2051 C 8.74023 -7.22656 31.7871 15.8203 59.7656 15.8203 Z M 59.7656 -62.5488 C 61.4746 -62.5488 62.8418 -61.8652 64.1113 -60.5957 L 81.4453 -42.6758 C 82.4219 -41.6504 82.8613 -40.5762 82.8613 -39.1602 C 82.8613 -36.5234 80.9082 -34.5215 78.1738 -34.5215 C 76.8066 -34.5215 75.4883 -35.1074 74.6582 -36.0352 L 68.8965 -42.1875 L 64.5508 -47.8516 L 65.0879 -37.3047 L 65.0879 -12.9395 C 65.0879 -10.0098 62.793 -7.91016 59.7656 -7.91016 C 56.7871 -7.91016 54.4922 -10.0098 54.4922 -12.9395 L 54.4922 -37.3047 L 55.0293 -47.8027 L 50.6836 -42.2852 L 44.9219 -36.0352 C 44.0918 -35.1562 42.7734 -34.5215 41.4062 -34.5215 C 38.6719 -34.5215 36.7188 -36.5234 36.7188 -39.1602 C 36.7188 -40.5762 37.1094 -41.6504 38.1348 -42.6758 L 55.5176 -60.5957 C 56.7871 -61.9141 58.1055 -62.5488 59.7656 -62.5488 Z"/>
  </g>
  <g id="Medium-M" transform="matrix(1 0 0 1 1687.3 1126)">
   <path d="M 59.2285 15.2832 C 86.9141 15.2832 109.766 -7.56836 109.766 -35.2051 C 109.766 -62.8906 86.8652 -85.7422 59.1797 -85.7422 C 31.543 -85.7422 8.74023 -62.8906 8.74023 -35.2051 C 8.74023 -7.56836 31.5918 15.2832 59.2285 15.2832 Z M 59.2285 -62.5977 C 60.7422 -62.5977 61.9141 -62.0117 63.0859 -60.8398 L 80.6641 -42.8711 C 81.4941 -41.9922 81.9824 -40.9668 81.9824 -39.6973 C 81.9824 -37.207 80.127 -35.3516 77.6367 -35.3516 C 76.3672 -35.3516 75.1953 -35.8887 74.4141 -36.7188 L 68.3105 -43.1152 L 63.4766 -49.1211 L 63.9648 -38.2324 L 63.9648 -12.4512 C 63.9648 -9.76562 61.9629 -7.86133 59.2285 -7.86133 C 56.543 -7.86133 54.4922 -9.76562 54.4922 -12.4512 L 54.4922 -38.2324 L 54.9805 -49.0723 L 50.2441 -43.1641 L 44.0918 -36.7188 C 43.3594 -35.9375 42.1387 -35.3516 40.8691 -35.3516 C 38.3789 -35.3516 36.5723 -37.207 36.5723 -39.6973 C 36.5723 -40.9668 36.9629 -41.9922 37.793 -42.8711 L 55.4688 -60.8398 C 56.6406 -62.0605 57.8125 -62.5977 59.2285 -62.5977 Z"/>
  </g>
  <g id="Regular-M" transform="matrix(1 0 0 1 1391.3 1126)">
   <path d="M 58.5449 14.5508 C 85.791 14.5508 108.35 -8.00781 108.35 -35.2539 C 108.35 -62.4512 85.7422 -85.0586 58.4961 -85.0586 C 31.2988 -85.0586 8.74023 -62.4512 8.74023 -35.2539 C 8.74023 -8.00781 31.3477 14.5508 58.5449 14.5508 Z M 58.5449 -62.6465 C 59.7168 -62.6465 60.6934 -62.1582 61.7188 -61.1328 L 79.6875 -43.1152 C 80.3223 -42.4316 80.8105 -41.5039 80.8105 -40.3809 C 80.8105 -38.1836 79.1504 -36.4746 76.9043 -36.4746 C 75.7812 -36.4746 74.8047 -36.9141 74.0723 -37.6465 L 67.5293 -44.2871 L 62.1582 -50.7324 L 62.5488 -39.4531 L 62.5488 -11.7676 C 62.5488 -9.42383 60.8887 -7.8125 58.5449 -7.8125 C 56.2012 -7.8125 54.541 -9.42383 54.541 -11.7676 L 54.541 -39.4531 L 54.9805 -50.6836 L 49.6094 -44.2871 L 43.0176 -37.6465 C 42.3828 -36.9629 41.3574 -36.4746 40.1855 -36.4746 C 37.9883 -36.4746 36.377 -38.1836 36.377 -40.3809 C 36.377 -41.5039 36.7188 -42.4316 37.4023 -43.1152 L 55.4199 -61.1328 C 56.4941 -62.207 57.4219 -62.6465 58.5449 -62.6465 Z"/>
  </g>
  <g id="Light-M" transform="matrix(1 0 0 1 1095.42 1126)">
   <path d="M 57.7148 13.7695 C 84.5215 13.7695 106.689 -8.39844 106.689 -35.2051 C 106.689 -62.0117 84.5215 -84.1797 57.666 -84.1797 C 30.8594 -84.1797 8.74023 -62.0117 8.74023 -35.2051 C 8.74023 -8.39844 30.9082 13.7695 57.7148 13.7695 Z M 57.7148 -62.2559 C 58.5938 -62.2559 59.3262 -61.9141 60.1562 -61.1328 L 78.8086 -42.4316 C 79.3457 -41.8945 79.6875 -41.1621 79.6875 -40.332 C 79.6875 -38.623 78.418 -37.3047 76.709 -37.3047 C 75.7812 -37.3047 75.0488 -37.6953 74.5117 -38.2324 L 66.3574 -46.4844 L 60.498 -52.9785 L 60.8398 -43.1641 L 60.8398 -11.2305 C 60.8398 -9.375 59.5703 -8.10547 57.7148 -8.10547 C 55.9082 -8.10547 54.5898 -9.375 54.5898 -11.2305 L 54.5898 -43.1641 L 54.9316 -52.9297 L 49.1211 -46.4844 L 40.9668 -38.2324 C 40.4297 -37.6953 39.6484 -37.3047 38.7695 -37.3047 C 37.0605 -37.3047 35.8398 -38.623 35.8398 -40.332 C 35.8398 -41.1621 36.1328 -41.8945 36.6699 -42.4316 L 55.3223 -61.1328 C 56.1523 -61.9629 56.8359 -62.2559 57.7148 -62.2559 Z"/>
  </g>
  <g id="Thin-M" transform="matrix(1 0 0 1 799.806 1126)">
   <path d="M 56.6406 12.7441 C 82.9102 12.7441 104.492 -8.83789 104.492 -35.1562 C 104.492 -61.4746 82.9102 -83.0566 56.5918 -83.0566 C 30.3223 -83.0566 8.74023 -61.4746 8.74023 -35.1562 C 8.74023 -8.83789 30.3223 12.7441 56.6406 12.7441 Z M 56.6406 -61.7676 C 57.1289 -61.7676 57.5684 -61.5723 58.0078 -61.1816 L 77.6367 -41.5527 C 77.9785 -41.1621 78.1738 -40.7715 78.1738 -40.2344 C 78.1738 -39.209 77.4414 -38.4766 76.3672 -38.4766 C 75.8301 -38.4766 75.4395 -38.6719 75.0488 -39.0625 L 64.7949 -49.3164 L 58.3496 -55.9082 L 58.5449 -48.1445 L 58.5449 -10.498 C 58.5449 -9.32617 57.8125 -8.54492 56.6406 -8.54492 C 55.4688 -8.54492 54.6875 -9.32617 54.6875 -10.498 L 54.6875 -48.1445 L 54.8828 -55.8594 L 48.4863 -49.3164 L 38.2324 -39.0625 C 37.8906 -38.6719 37.4512 -38.4766 36.9141 -38.4766 C 35.8398 -38.4766 35.1074 -39.209 35.1074 -40.2344 C 35.1074 -40.7715 35.3027 -41.1621 35.6445 -41.5527 L 55.2246 -61.1816 C 55.6641 -61.6211 56.1523 -61.7676 56.6406 -61.7676 Z"/>
  </g>
  <g id="Ultralight-M" transform="matrix(1 0 0 1 503.656 1126)">
   <path d="M 56.0547 12.207 C 82.0801 12.207 103.369 -9.08203 103.369 -35.1562 C 103.369 -61.1816 82.0801 -82.4707 56.0547 -82.4707 C 30.0293 -82.4707 8.74023 -61.1816 8.74023 -35.1562 C 8.74023 -9.08203 30.0293 12.207 56.0547 12.207 Z M 56.0547 -61.5234 C 56.3477 -61.5234 56.6406 -61.4258 56.9336 -61.1816 L 77.0508 -41.0645 C 77.2949 -40.7715 77.4414 -40.5273 77.4414 -40.1855 C 77.4414 -39.502 76.9531 -39.0625 76.2207 -39.0625 C 75.8789 -39.0625 75.6348 -39.1602 75.3418 -39.4531 L 64.0137 -50.7812 L 57.2754 -57.4707 L 57.373 -50.6836 L 57.373 -10.1074 C 57.373 -9.27734 56.8848 -8.78906 56.0547 -8.78906 C 55.2734 -8.78906 54.7363 -9.27734 54.7363 -10.1074 L 54.7363 -50.6836 L 54.834 -57.373 L 48.1445 -50.7812 L 36.8652 -39.4531 C 36.5723 -39.1602 36.3281 -39.0625 35.9375 -39.0625 C 35.2539 -39.0625 34.7656 -39.502 34.7656 -40.1855 C 34.7656 -40.5273 34.8633 -40.7715 35.1074 -41.0645 L 55.1758 -61.1816 C 55.4199 -61.4258 55.7617 -61.5234 56.0547 -61.5234 Z"/>
  </g>
  <g id="Black-S" transform="matrix(1 0 0 1 2884.57 696)">
   <path d="M 48.8281 6.78711 C 71.9727 6.78711 90.8203 -12.0605 90.8203 -35.2051 C 90.8203 -58.3496 71.9727 -77.1973 48.8281 -77.1973 C 25.6836 -77.1973 6.83594 -58.3496 6.83594 -35.2051 C 6.83594 -12.0605 25.6836 6.78711 48.8281 6.78711 Z M 48.8281 -56.4453 C 50.9766 -56.4453 52.7344 -55.6641 54.0527 -54.1992 L 66.6504 -40.3809 C 67.9199 -39.0137 68.3105 -37.9883 68.3105 -36.3281 C 68.3105 -33.4961 66.2598 -31.543 63.2324 -31.543 C 61.8164 -31.543 60.3027 -32.2266 59.4238 -33.3008 L 56.2012 -37.2559 L 54.4922 -40.4297 L 55.0781 -33.3496 L 55.0781 -19.7266 C 55.0781 -16.4062 52.2949 -14.0137 48.8281 -14.0137 C 45.3613 -14.0137 42.5781 -16.4062 42.5781 -19.7266 L 42.5781 -33.3496 L 43.2129 -40.4297 L 41.5039 -37.4512 L 38.2324 -33.3008 C 37.4023 -32.2266 35.8887 -31.543 34.4238 -31.543 C 31.3965 -31.543 29.3457 -33.4961 29.3457 -36.3281 C 29.3457 -37.9883 29.7363 -39.0137 31.0059 -40.3809 L 43.6035 -54.1992 C 44.9219 -55.6641 46.6797 -56.4453 48.8281 -56.4453 Z"/>
  </g>
  <g id="Heavy-S" transform="matrix(1 0 0 1 2588.47 696)">
   <path d="M 48.2422 6.15234 C 70.9961 6.15234 89.5996 -12.4512 89.5996 -35.2051 C 89.5996 -57.959 70.9961 -76.6113 48.1934 -76.6113 C 25.4395 -76.6113 6.83594 -57.959 6.83594 -35.2051 C 6.83594 -12.4512 25.4395 6.15234 48.2422 6.15234 Z M 48.2422 -56.543 C 50.0977 -56.543 51.6602 -55.8594 52.8809 -54.4922 L 65.7715 -40.7227 C 66.8457 -39.502 67.2363 -38.5254 67.2363 -37.0117 C 67.2363 -34.4238 65.332 -32.5195 62.5488 -32.5195 C 61.2305 -32.5195 59.8633 -33.1543 59.0332 -34.1309 L 55.5664 -38.2324 L 53.3203 -41.7969 L 53.8574 -34.1309 L 53.8574 -19.0918 C 53.8574 -16.0645 51.3672 -13.916 48.2422 -13.916 C 45.0684 -13.916 42.627 -16.0645 42.627 -19.0918 L 42.627 -34.1309 L 43.1641 -41.7969 L 40.918 -38.3789 L 37.4023 -34.1309 C 36.6211 -33.1543 35.2539 -32.5195 33.8867 -32.5195 C 31.1035 -32.5195 29.1992 -34.4238 29.1992 -37.0117 C 29.1992 -38.5254 29.5898 -39.502 30.7129 -40.7227 L 43.5547 -54.4922 C 44.8242 -55.8594 46.3379 -56.543 48.2422 -56.543 Z"/>
  </g>
  <g id="Bold-S" transform="matrix(1 0 0 1 2292.44 696)">
   <path d="M 47.5586 5.46875 C 69.873 5.46875 88.2324 -12.8906 88.2324 -35.2051 C 88.2324 -57.5684 69.873 -75.9277 47.5098 -75.9277 C 25.1953 -75.9277 6.83594 -57.5684 6.83594 -35.2051 C 6.83594 -12.8906 25.1953 5.46875 47.5586 5.46875 Z M 47.5586 -56.6406 C 49.1699 -56.6406 50.4395 -56.0547 51.5625 -54.8828 L 64.7461 -41.0645 C 65.6738 -40.0879 66.0645 -39.1602 66.0645 -37.793 C 66.0645 -35.4004 64.3066 -33.6426 61.8164 -33.6426 C 60.5957 -33.6426 59.375 -34.2285 58.6426 -35.0586 L 54.834 -39.2578 L 51.9531 -43.3594 L 52.4414 -35.0098 L 52.4414 -18.4082 C 52.4414 -15.7227 50.293 -13.8184 47.5586 -13.8184 C 44.7754 -13.8184 42.627 -15.7227 42.627 -18.4082 L 42.627 -35.0098 L 43.1152 -43.3594 L 40.2832 -39.3555 L 36.4746 -35.0586 C 35.7422 -34.2285 34.5215 -33.6426 33.3008 -33.6426 C 30.8105 -33.6426 29.0527 -35.4004 29.0527 -37.793 C 29.0527 -39.1602 29.3945 -40.0879 30.3223 -41.0645 L 43.5059 -54.8828 C 44.6777 -56.1035 45.9473 -56.6406 47.5586 -56.6406 Z"/>
  </g>
  <g id="Semibold-S" transform="matrix(1 0 0 1 1996.2 696)">
   <path d="M 47.0703 4.98047 C 69.0918 4.98047 87.3047 -13.1836 87.3047 -35.2539 C 87.3047 -57.2754 69.0918 -75.4883 47.0215 -75.4883 C 25 -75.4883 6.83594 -57.2754 6.83594 -35.2539 C 6.83594 -13.1836 25.0488 4.98047 47.0703 4.98047 Z M 47.0703 -56.7383 C 48.4863 -56.7383 49.6094 -56.2012 50.6836 -55.0781 L 64.0625 -41.3086 C 64.8438 -40.4785 65.2832 -39.5508 65.2832 -38.3301 C 65.2832 -36.084 63.5742 -34.4238 61.2793 -34.4238 C 60.1074 -34.4238 59.0332 -34.9121 58.3496 -35.6934 L 54.3457 -39.9902 L 51.0742 -44.4336 L 51.5137 -35.6445 L 51.5137 -17.9199 C 51.5137 -15.4785 49.6094 -13.7207 47.0703 -13.7207 C 44.5801 -13.7207 42.6758 -15.4785 42.6758 -17.9199 L 42.6758 -35.6445 L 43.1152 -44.3848 L 39.8438 -40.0879 L 35.8398 -35.6934 C 35.1562 -34.9609 34.0332 -34.4238 32.8613 -34.4238 C 30.5664 -34.4238 28.9062 -36.084 28.9062 -38.3301 C 28.9062 -39.5508 29.248 -40.4785 30.0781 -41.3086 L 43.5059 -55.0781 C 44.5801 -56.25 45.7031 -56.7383 47.0703 -56.7383 Z"/>
  </g>
  <g id="Medium-S" transform="matrix(1 0 0 1 1699.83 696)">
   <path d="M 46.7285 4.63867 C 68.5547 4.63867 86.6211 -13.4277 86.6211 -35.2539 C 86.6211 -57.0312 68.5059 -75.1465 46.6797 -75.1465 C 24.8535 -75.1465 6.83594 -57.0312 6.83594 -35.2539 C 6.83594 -13.4277 24.9023 4.63867 46.7285 4.63867 Z M 46.7285 -56.7871 C 47.998 -56.7871 49.0234 -56.2988 50 -55.2734 L 63.5254 -41.5039 C 64.209 -40.7227 64.6484 -39.8926 64.6484 -38.7695 C 64.6484 -36.6211 63.0371 -35.0098 60.8887 -35.0098 C 59.7656 -35.0098 58.7891 -35.498 58.1055 -36.1816 L 53.9551 -40.5762 L 50.3418 -45.2148 L 50.7812 -36.084 L 50.7812 -17.5781 C 50.7812 -15.2832 49.0234 -13.6719 46.7285 -13.6719 C 44.3848 -13.6719 42.6758 -15.2832 42.6758 -17.5781 L 42.6758 -36.084 L 43.0664 -45.2148 L 39.502 -40.625 L 35.3516 -36.1816 C 34.7168 -35.498 33.6914 -35.0098 32.5684 -35.0098 C 30.4199 -35.0098 28.8574 -36.6211 28.8574 -38.7695 C 28.8574 -39.8926 29.1992 -40.7227 29.9316 -41.5039 L 43.457 -55.2734 C 44.5312 -56.3477 45.5078 -56.7871 46.7285 -56.7871 Z"/>
  </g>
  <g id="Regular-S" transform="matrix(1 0 0 1 1403.58 696)">
   <path d="M 46.2402 4.15039 C 67.7734 4.15039 85.6934 -13.7207 85.6934 -35.2539 C 85.6934 -56.7871 67.7246 -74.6582 46.1914 -74.6582 C 24.707 -74.6582 6.83594 -56.7871 6.83594 -35.2539 C 6.83594 -13.7207 24.7559 4.15039 46.2402 4.15039 Z M 46.2402 -56.8848 C 47.3145 -56.8848 48.1934 -56.4453 49.1211 -55.5176 L 62.8418 -41.748 C 63.4277 -41.1133 63.8184 -40.2832 63.8184 -39.3066 C 63.8184 -37.3047 62.3535 -35.791 60.3516 -35.791 C 59.3262 -35.791 58.4473 -36.1816 57.8125 -36.8164 L 53.4668 -41.3086 L 49.4629 -46.2891 L 49.8535 -36.7188 L 49.8535 -17.0898 C 49.8535 -15.0391 48.3398 -13.5742 46.2402 -13.5742 C 44.1895 -13.5742 42.6758 -15.0391 42.6758 -17.0898 L 42.6758 -36.7188 L 43.0664 -46.2402 L 39.0625 -41.3086 L 34.668 -36.8164 C 34.1309 -36.2305 33.2031 -35.791 32.1777 -35.791 C 30.1758 -35.791 28.7109 -37.3047 28.7109 -39.3066 C 28.7109 -40.2832 29.0527 -41.1133 29.6875 -41.748 L 43.457 -55.5176 C 44.4336 -56.4941 45.2148 -56.8848 46.2402 -56.8848 Z"/>
  </g>
  <g id="Light-S" transform="matrix(1 0 0 1 1107.6 696)">
   <path d="M 45.5078 3.4668 C 66.6992 3.4668 84.2285 -14.0625 84.2285 -35.2051 C 84.2285 -56.3965 66.6504 -73.9258 45.5078 -73.9258 C 24.3164 -73.9258 6.83594 -56.3965 6.83594 -35.2051 C 6.83594 -14.0625 24.3652 3.4668 45.5078 3.4668 Z M 45.5078 -56.543 C 46.3379 -56.543 46.9727 -56.25 47.7051 -55.5176 L 62.0605 -41.1621 C 62.5 -40.625 62.8418 -39.9902 62.8418 -39.2578 C 62.8418 -37.7441 61.6699 -36.5234 60.1562 -36.5234 C 59.375 -36.5234 58.6914 -36.8652 58.2031 -37.3535 L 52.4414 -43.2129 L 47.998 -48.291 L 48.291 -40.0391 L 48.291 -16.6016 C 48.291 -14.9902 47.168 -13.8672 45.5078 -13.8672 C 43.8965 -13.8672 42.7246 -14.9902 42.7246 -16.6016 L 42.7246 -40.0391 L 43.0176 -48.2422 L 38.6719 -43.2129 L 32.8613 -37.3535 C 32.4219 -36.9141 31.6895 -36.5234 30.9082 -36.5234 C 29.3945 -36.5234 28.2715 -37.7441 28.2715 -39.2578 C 28.2715 -39.9902 28.5156 -40.625 29.0039 -41.1621 L 43.3594 -55.5176 C 44.0918 -56.25 44.7266 -56.543 45.5078 -56.543 Z"/>
  </g>
  <g id="Thin-S" transform="matrix(1 0 0 1 811.867 696)">
   <path d="M 44.5801 2.53906 C 65.2832 2.53906 82.2754 -14.4531 82.2754 -35.2051 C 82.2754 -55.9082 65.2344 -72.9004 44.5312 -72.9004 C 23.8281 -72.9004 6.83594 -55.9082 6.83594 -35.2051 C 6.83594 -14.4531 23.877 2.53906 44.5801 2.53906 Z M 44.5801 -56.1523 C 45.0195 -56.1523 45.4102 -55.957 45.8496 -55.5664 L 61.0352 -40.332 C 61.3281 -39.9902 61.5234 -39.6484 61.5234 -39.1602 C 61.5234 -38.2324 60.8398 -37.5488 59.9121 -37.5488 C 59.375 -37.5488 59.0332 -37.7441 58.6914 -38.0859 L 51.0742 -45.7031 L 46.1426 -50.8789 L 46.2891 -44.3848 L 46.2891 -15.9668 C 46.2891 -14.9414 45.6055 -14.2578 44.5801 -14.2578 C 43.5547 -14.2578 42.8223 -14.9414 42.8223 -15.9668 L 42.8223 -44.3848 L 43.0176 -50.8301 L 38.0859 -45.7031 L 30.4688 -38.0859 C 30.127 -37.7441 29.7363 -37.5488 29.248 -37.5488 C 28.3203 -37.5488 27.6367 -38.2324 27.6367 -39.1602 C 27.6367 -39.6484 27.7832 -39.9902 28.125 -40.332 L 43.2617 -55.5664 C 43.7012 -55.957 44.0918 -56.1523 44.5801 -56.1523 Z"/>
  </g>
  <g id="Ultralight-S" transform="matrix(1 0 0 1 515.644 696)">
   <path d="M 44.043 2.05078 C 64.502 2.05078 81.2988 -14.6973 81.2988 -35.1562 C 81.2988 -55.6152 64.502 -72.3633 44.043 -72.3633 C 23.584 -72.3633 6.83594 -55.6152 6.83594 -35.1562 C 6.83594 -14.6973 23.584 2.05078 44.043 2.05078 Z M 44.043 -55.9082 C 44.3359 -55.9082 44.6289 -55.8105 44.873 -55.5664 L 60.498 -39.9414 C 60.7422 -39.6973 60.8398 -39.4531 60.8398 -39.1113 C 60.8398 -38.5254 60.4004 -38.0859 59.7656 -38.0859 C 59.4238 -38.0859 59.1797 -38.1836 58.9355 -38.4277 L 50.3418 -47.0215 L 45.166 -52.2461 L 45.2637 -46.6309 L 45.2637 -15.6738 C 45.2637 -14.8926 44.8242 -14.4531 44.043 -14.4531 C 43.3594 -14.4531 42.8711 -14.8926 42.8711 -15.6738 L 42.8711 -46.6309 L 42.9688 -52.1973 L 37.793 -47.0215 L 29.248 -38.4277 C 28.9551 -38.1836 28.7598 -38.0859 28.418 -38.0859 C 27.7832 -38.0859 27.2949 -38.5254 27.2949 -39.1113 C 27.2949 -39.4531 27.4414 -39.6973 27.6367 -39.9414 L 43.2129 -55.5664 C 43.457 -55.8105 43.7988 -55.9082 44.043 -55.9082 Z"/>
  </g>
 </g>
</svg>
