<?xml version="1.0" encoding="UTF-8"?>
<!--Generator: Apple Native CoreSVG 123-->
<!DOCTYPE svg
PUBLIC "-//W3C//DTD SVG 1.1//EN"
       "http://www.w3.org/Graphics/SVG/1.1/DTD/svg11.dtd">
<svg version="1.1" xmlns="http://www.w3.org/2000/svg" xmlns:xlink="http://www.w3.org/1999/xlink" width="3300" height="2200">
 <!--glyph: "uni100079.medium", point size: 100.000000, font version: "Version 15.0d7e11", template writer version: "5"-->
 <g id="Notes">
  <rect height="2200" id="artboard" style="fill:white;opacity:1" width="3300" x="0" y="0"/>
  <line id="" style="fill:none;stroke:black;opacity:1;stroke-width:0.5;" x1="263" x2="3036" y1="292" y2="292"/>
  <text style="stroke:none;fill:black;font-family:-apple-system,&quot;SF Pro Display&quot;,&quot;SF Pro Text&quot;,Helvetica,sans-serif;font-weight:bold;" transform="matrix(1 0 0 1 263 322)">Weight/Scale Variations</text>
  <text style="stroke:none;fill:black;font-family:-apple-system,&quot;SF Pro Display&quot;,&quot;SF Pro Text&quot;,Helvetica,sans-serif;text-anchor:middle;" transform="matrix(1 0 0 1 559.711 322)">Ultralight</text>
  <text style="stroke:none;fill:black;font-family:-apple-system,&quot;SF Pro Display&quot;,&quot;SF Pro Text&quot;,Helvetica,sans-serif;text-anchor:middle;" transform="matrix(1 0 0 1 856.422 322)">Thin</text>
  <text style="stroke:none;fill:black;font-family:-apple-system,&quot;SF Pro Display&quot;,&quot;SF Pro Text&quot;,Helvetica,sans-serif;text-anchor:middle;" transform="matrix(1 0 0 1 1153.13 322)">Light</text>
  <text style="stroke:none;fill:black;font-family:-apple-system,&quot;SF Pro Display&quot;,&quot;SF Pro Text&quot;,Helvetica,sans-serif;text-anchor:middle;" transform="matrix(1 0 0 1 1449.84 322)">Regular</text>
  <text style="stroke:none;fill:black;font-family:-apple-system,&quot;SF Pro Display&quot;,&quot;SF Pro Text&quot;,Helvetica,sans-serif;text-anchor:middle;" transform="matrix(1 0 0 1 1746.56 322)">Medium</text>
  <text style="stroke:none;fill:black;font-family:-apple-system,&quot;SF Pro Display&quot;,&quot;SF Pro Text&quot;,Helvetica,sans-serif;text-anchor:middle;" transform="matrix(1 0 0 1 2043.27 322)">Semibold</text>
  <text style="stroke:none;fill:black;font-family:-apple-system,&quot;SF Pro Display&quot;,&quot;SF Pro Text&quot;,Helvetica,sans-serif;text-anchor:middle;" transform="matrix(1 0 0 1 2339.98 322)">Bold</text>
  <text style="stroke:none;fill:black;font-family:-apple-system,&quot;SF Pro Display&quot;,&quot;SF Pro Text&quot;,Helvetica,sans-serif;text-anchor:middle;" transform="matrix(1 0 0 1 2636.69 322)">Heavy</text>
  <text style="stroke:none;fill:black;font-family:-apple-system,&quot;SF Pro Display&quot;,&quot;SF Pro Text&quot;,Helvetica,sans-serif;text-anchor:middle;" transform="matrix(1 0 0 1 2933.4 322)">Black</text>
  <line id="" style="fill:none;stroke:black;opacity:1;stroke-width:0.5;" x1="263" x2="3036" y1="1903" y2="1903"/>
  <g id="" transform="matrix(1 0 0 1 263 1933)">
   <path d="M 9.24805 0.830078 C 13.5547 0.830078 17.1387 -2.74414 17.1387 -7.05078 C 17.1387 -11.3574 13.5449 -14.9316 9.23828 -14.9316 C 4.94141 -14.9316 1.36719 -11.3574 1.36719 -7.05078 C 1.36719 -2.74414 4.95117 0.830078 9.24805 0.830078 Z M 9.24805 -0.654297 C 5.70312 -0.654297 2.87109 -3.49609 2.87109 -7.05078 C 2.87109 -10.6055 5.69336 -13.4473 9.23828 -13.4473 C 12.793 -13.4473 15.6348 -10.6055 15.6445 -7.05078 C 15.6543 -3.49609 12.8027 -0.654297 9.24805 -0.654297 Z M 9.22852 -3.42773 C 9.69727 -3.42773 9.9707 -3.74023 9.9707 -4.25781 L 9.9707 -6.31836 L 12.1973 -6.31836 C 12.6953 -6.31836 13.0371 -6.57227 13.0371 -7.04102 C 13.0371 -7.51953 12.7148 -7.7832 12.1973 -7.7832 L 9.9707 -7.7832 L 9.9707 -10.0098 C 9.9707 -10.5273 9.69727 -10.8496 9.22852 -10.8496 C 8.75977 -10.8496 8.50586 -10.5078 8.50586 -10.0098 L 8.50586 -7.7832 L 6.29883 -7.7832 C 5.78125 -7.7832 5.44922 -7.51953 5.44922 -7.04102 C 5.44922 -6.57227 5.80078 -6.31836 6.29883 -6.31836 L 8.50586 -6.31836 L 8.50586 -4.25781 C 8.50586 -3.75977 8.75977 -3.42773 9.22852 -3.42773 Z"/>
  </g>
  <g id="" transform="matrix(1 0 0 1 281.506 1933)">
   <path d="M 11.709 2.91016 C 17.1582 2.91016 21.6699 -1.60156 21.6699 -7.05078 C 21.6699 -12.4902 17.1484 -17.0117 11.6992 -17.0117 C 6.25977 -17.0117 1.74805 -12.4902 1.74805 -7.05078 C 1.74805 -1.60156 6.26953 2.91016 11.709 2.91016 Z M 11.709 1.25 C 7.09961 1.25 3.41797 -2.44141 3.41797 -7.05078 C 3.41797 -11.6504 7.08984 -15.3516 11.6992 -15.3516 C 16.3086 -15.3516 20 -11.6504 20.0098 -7.05078 C 20.0195 -2.44141 16.3184 1.25 11.709 1.25 Z M 11.6895 -2.41211 C 12.207 -2.41211 12.5195 -2.77344 12.5195 -3.33984 L 12.5195 -6.23047 L 15.5762 -6.23047 C 16.123 -6.23047 16.5039 -6.51367 16.5039 -7.03125 C 16.5039 -7.55859 16.1426 -7.86133 15.5762 -7.86133 L 12.5195 -7.86133 L 12.5195 -10.9277 C 12.5195 -11.5039 12.207 -11.8555 11.6895 -11.8555 C 11.1719 -11.8555 10.8789 -11.4844 10.8789 -10.9277 L 10.8789 -7.86133 L 7.83203 -7.86133 C 7.26562 -7.86133 6.89453 -7.55859 6.89453 -7.03125 C 6.89453 -6.51367 7.28516 -6.23047 7.83203 -6.23047 L 10.8789 -6.23047 L 10.8789 -3.33984 C 10.8789 -2.79297 11.1719 -2.41211 11.6895 -2.41211 Z"/>
  </g>
  <g id="" transform="matrix(1 0 0 1 304.924 1933)">
   <path d="M 14.9707 5.67383 C 21.9336 5.67383 27.6953 -0.078125 27.6953 -7.04102 C 27.6953 -14.0039 21.9238 -19.7559 14.9609 -19.7559 C 8.00781 -19.7559 2.25586 -14.0039 2.25586 -7.04102 C 2.25586 -0.078125 8.01758 5.67383 14.9707 5.67383 Z M 14.9707 3.85742 C 8.93555 3.85742 4.08203 -1.00586 4.08203 -7.04102 C 4.08203 -13.0762 8.92578 -17.9395 14.9609 -17.9395 C 21.0059 -17.9395 25.8594 -13.0762 25.8691 -7.04102 C 25.8789 -1.00586 21.0156 3.85742 14.9707 3.85742 Z M 14.9512 -1.06445 C 15.5176 -1.06445 15.8691 -1.45508 15.8691 -2.06055 L 15.8691 -6.13281 L 20.1074 -6.13281 C 20.6934 -6.13281 21.1133 -6.46484 21.1133 -7.02148 C 21.1133 -7.59766 20.7227 -7.93945 20.1074 -7.93945 L 15.8691 -7.93945 L 15.8691 -12.1875 C 15.8691 -12.8027 15.5176 -13.1934 14.9512 -13.1934 C 14.3848 -13.1934 14.0625 -12.7832 14.0625 -12.1875 L 14.0625 -7.93945 L 9.83398 -7.93945 C 9.21875 -7.93945 8.80859 -7.59766 8.80859 -7.02148 C 8.80859 -6.46484 9.23828 -6.13281 9.83398 -6.13281 L 14.0625 -6.13281 L 14.0625 -2.06055 C 14.0625 -1.47461 14.3848 -1.06445 14.9512 -1.06445 Z"/>
  </g>
  <text style="stroke:none;fill:black;font-family:-apple-system,&quot;SF Pro Display&quot;,&quot;SF Pro Text&quot;,Helvetica,sans-serif;font-weight:bold;" transform="matrix(1 0 0 1 263 1953)">Design Variations</text>
  <text style="stroke:none;fill:black;font-family:-apple-system,&quot;SF Pro Display&quot;,&quot;SF Pro Text&quot;,Helvetica,sans-serif;" transform="matrix(1 0 0 1 263 1971)">Symbols are supported in up to nine weights and three scales.</text>
  <text style="stroke:none;fill:black;font-family:-apple-system,&quot;SF Pro Display&quot;,&quot;SF Pro Text&quot;,Helvetica,sans-serif;" transform="matrix(1 0 0 1 263 1989)">For optimal layout with text and other symbols, vertically align</text>
  <text style="stroke:none;fill:black;font-family:-apple-system,&quot;SF Pro Display&quot;,&quot;SF Pro Text&quot;,Helvetica,sans-serif;" transform="matrix(1 0 0 1 263 2007)">symbols with the adjacent text.</text>
  <rect height="14" id="" style="fill:#00AEEF;stroke:none;opacity:0.4;" width="3" x="776" y="1919"/>
  <g id="" transform="matrix(1 0 0 1 779 1933)">
   <path d="M 10.5273 0 L 12.373 0 L 7.17773 -14.0918 L 5.43945 -14.0918 L 0.244141 0 L 2.08984 0 L 3.50586 -4.0332 L 9.11133 -4.0332 Z M 6.2793 -11.9531 L 6.33789 -11.9531 L 8.59375 -5.52734 L 4.02344 -5.52734 Z"/>
  </g>
  <rect height="14" id="" style="fill:#00AEEF;stroke:none;opacity:0.4;" width="3" x="791.617" y="1919"/>
  <text style="stroke:none;fill:black;font-family:-apple-system,&quot;SF Pro Display&quot;,&quot;SF Pro Text&quot;,Helvetica,sans-serif;font-weight:bold;" transform="matrix(1 0 0 1 776 1953)">Margins</text>
  <text style="stroke:none;fill:black;font-family:-apple-system,&quot;SF Pro Display&quot;,&quot;SF Pro Text&quot;,Helvetica,sans-serif;" transform="matrix(1 0 0 1 776 1971)">Leading and trailing margins on the left and right side of each symbol</text>
  <text style="stroke:none;fill:black;font-family:-apple-system,&quot;SF Pro Display&quot;,&quot;SF Pro Text&quot;,Helvetica,sans-serif;" transform="matrix(1 0 0 1 776 1989)">can be adjusted by modifying the width of the blue rectangles.</text>
  <text style="stroke:none;fill:black;font-family:-apple-system,&quot;SF Pro Display&quot;,&quot;SF Pro Text&quot;,Helvetica,sans-serif;" transform="matrix(1 0 0 1 776 2007)">Modifications are automatically applied proportionally to all</text>
  <text style="stroke:none;fill:black;font-family:-apple-system,&quot;SF Pro Display&quot;,&quot;SF Pro Text&quot;,Helvetica,sans-serif;" transform="matrix(1 0 0 1 776 2025)">scales and weights.</text>
  <g id="" transform="matrix(1 0 0 1 1289 1933)">
   <path d="M 2.83203 3.11523 L 4.375 4.6582 C 5.22461 5.48828 6.19141 5.41992 7.06055 4.46289 L 17.2754 -6.66016 C 17.7051 -6.36719 18.0957 -6.37695 18.5645 -6.47461 L 19.6094 -6.68945 L 20.3027 -5.99609 L 20.2539 -5.47852 C 20.1855 -4.95117 20.3516 -4.53125 20.8496 -4.0332 L 21.6602 -3.22266 C 22.168 -2.71484 22.8223 -2.68555 23.3008 -3.16406 L 26.5527 -6.41602 C 27.0312 -6.89453 27.0117 -7.54883 26.5039 -8.05664 L 25.6836 -8.87695 C 25.1855 -9.375 24.7754 -9.55078 24.2383 -9.47266 L 23.7109 -9.41406 L 23.0566 -10.0781 L 23.3398 -11.2207 C 23.4863 -11.7871 23.3398 -12.2559 22.7148 -12.8613 L 20.3027 -15.2539 C 16.7578 -18.7793 12.2266 -18.6719 9.11133 -15.5371 C 8.69141 -15.1074 8.64258 -14.5215 8.91602 -14.0918 C 9.15039 -13.7207 9.62891 -13.4961 10.2734 -13.6621 C 11.7871 -14.043 13.3008 -13.9258 14.7852 -12.9199 L 14.1602 -11.3379 C 13.9258 -10.752 13.9453 -10.2734 14.1797 -9.83398 L 3.01758 0.439453 C 2.08008 1.30859 1.97266 2.25586 2.83203 3.11523 Z M 10.6738 -15.1465 C 13.3398 -17.1387 16.6504 -16.8262 19.0527 -14.4141 L 21.6797 -11.8066 C 21.9141 -11.5723 21.9434 -11.3867 21.8848 -11.0938 L 21.5039 -9.53125 L 23.0762 -7.95898 L 24.043 -8.04688 C 24.3262 -8.07617 24.4141 -8.05664 24.6387 -7.83203 L 25.2637 -7.20703 L 22.5098 -4.46289 L 21.8848 -5.07812 C 21.6602 -5.30273 21.6406 -5.40039 21.6699 -5.68359 L 21.7578 -6.64062 L 20.1953 -8.20312 L 18.5742 -7.89062 C 18.291 -7.83203 18.1445 -7.83203 17.9102 -8.07617 L 15.7324 -10.2539 C 15.5078 -10.4883 15.4785 -10.625 15.6055 -10.9473 L 16.5527 -13.2227 C 14.9512 -14.7559 12.8418 -15.6055 10.8008 -14.9512 C 10.7129 -14.9219 10.6445 -14.9414 10.6152 -14.9805 C 10.5859 -15.0293 10.5859 -15.0781 10.6738 -15.1465 Z M 4.10156 2.41211 C 3.61328 1.91406 3.78906 1.61133 4.12109 1.30859 L 15.0781 -8.80859 L 16.3086 -7.57812 L 6.15234 3.34961 C 5.84961 3.68164 5.46875 3.7793 5.06836 3.37891 Z"/>
  </g>
  <text style="stroke:none;fill:black;font-family:-apple-system,&quot;SF Pro Display&quot;,&quot;SF Pro Text&quot;,Helvetica,sans-serif;font-weight:bold;" transform="matrix(1 0 0 1 1289 1953)">Exporting</text>
  <text style="stroke:none;fill:black;font-family:-apple-system,&quot;SF Pro Display&quot;,&quot;SF Pro Text&quot;,Helvetica,sans-serif;" transform="matrix(1 0 0 1 1289 1971)">Symbols should be outlined when exporting to ensure the</text>
  <text style="stroke:none;fill:black;font-family:-apple-system,&quot;SF Pro Display&quot;,&quot;SF Pro Text&quot;,Helvetica,sans-serif;" transform="matrix(1 0 0 1 1289 1989)">design is preserved when submitting to Xcode.</text>
  <text id="template-version" style="stroke:none;fill:black;font-family:-apple-system,&quot;SF Pro Display&quot;,&quot;SF Pro Text&quot;,Helvetica,sans-serif;text-anchor:end;" transform="matrix(1 0 0 1 3036 1933)">Template v.1.0</text>
  <text style="stroke:none;fill:black;font-family:-apple-system,&quot;SF Pro Display&quot;,&quot;SF Pro Text&quot;,Helvetica,sans-serif;text-anchor:end;" transform="matrix(1 0 0 1 3036 1951)">Generated from arrow.down.circle.fill</text>
  <text style="stroke:none;fill:black;font-family:-apple-system,&quot;SF Pro Display&quot;,&quot;SF Pro Text&quot;,Helvetica,sans-serif;text-anchor:end;" transform="matrix(1 0 0 1 3036 1969)">Typeset at 100 points</text>
  <text style="stroke:none;fill:black;font-family:-apple-system,&quot;SF Pro Display&quot;,&quot;SF Pro Text&quot;,Helvetica,sans-serif;" transform="matrix(1 0 0 1 263 726)">Small</text>
  <text style="stroke:none;fill:black;font-family:-apple-system,&quot;SF Pro Display&quot;,&quot;SF Pro Text&quot;,Helvetica,sans-serif;" transform="matrix(1 0 0 1 263 1156)">Medium</text>
  <text style="stroke:none;fill:black;font-family:-apple-system,&quot;SF Pro Display&quot;,&quot;SF Pro Text&quot;,Helvetica,sans-serif;" transform="matrix(1 0 0 1 263 1586)">Large</text>
 </g>
 <g id="Guides">
  <g id="H-reference" style="fill:#27AAE1;stroke:none;" transform="matrix(1 0 0 1 339 696)">
   <path d="M 54.9316 0 L 57.666 0 L 30.5664 -70.459 L 28.0762 -70.459 L 0.976562 0 L 3.66211 0 L 12.9395 -24.4629 L 45.7031 -24.4629 Z M 29.1992 -67.0898 L 29.4434 -67.0898 L 44.8242 -26.709 L 13.8184 -26.709 Z"/>
  </g>
  <line id="Baseline-S" style="fill:none;stroke:#27AAE1;opacity:1;stroke-width:0.577;" x1="263" x2="3036" y1="696" y2="696"/>
  <line id="Capline-S" style="fill:none;stroke:#27AAE1;opacity:1;stroke-width:0.577;" x1="263" x2="3036" y1="625.541" y2="625.541"/>
  <g id="H-reference" style="fill:#27AAE1;stroke:none;" transform="matrix(1 0 0 1 339 1126)">
   <path d="M 54.9316 0 L 57.666 0 L 30.5664 -70.459 L 28.0762 -70.459 L 0.976562 0 L 3.66211 0 L 12.9395 -24.4629 L 45.7031 -24.4629 Z M 29.1992 -67.0898 L 29.4434 -67.0898 L 44.8242 -26.709 L 13.8184 -26.709 Z"/>
  </g>
  <line id="Baseline-M" style="fill:none;stroke:#27AAE1;opacity:1;stroke-width:0.577;" x1="263" x2="3036" y1="1126" y2="1126"/>
  <line id="Capline-M" style="fill:none;stroke:#27AAE1;opacity:1;stroke-width:0.577;" x1="263" x2="3036" y1="1055.54" y2="1055.54"/>
  <g id="H-reference" style="fill:#27AAE1;stroke:none;" transform="matrix(1 0 0 1 339 1556)">
   <path d="M 54.9316 0 L 57.666 0 L 30.5664 -70.459 L 28.0762 -70.459 L 0.976562 0 L 3.66211 0 L 12.9395 -24.4629 L 45.7031 -24.4629 Z M 29.1992 -67.0898 L 29.4434 -67.0898 L 44.8242 -26.709 L 13.8184 -26.709 Z"/>
  </g>
  <line id="Baseline-L" style="fill:none;stroke:#27AAE1;opacity:1;stroke-width:0.577;" x1="263" x2="3036" y1="1556" y2="1556"/>
  <line id="Capline-L" style="fill:none;stroke:#27AAE1;opacity:1;stroke-width:0.577;" x1="263" x2="3036" y1="1485.54" y2="1485.54"/>
  <rect height="119.336" id="left-margin" style="fill:#00AEEF;stroke:none;opacity:0.4;" width="8.74023" x="1391.3" y="1030.79"/>
  <rect height="119.336" id="right-margin" style="fill:#00AEEF;stroke:none;opacity:0.4;" width="8.74023" x="1499.65" y="1030.79"/>
 </g>
 <g id="Symbols">
  <g id="Black-L" transform="matrix(1 0 0 1 2854.05 1556)">
   <path d="M 79.3457 32.8613 C 116.748 32.8613 147.412 2.19727 147.412 -35.2051 C 147.412 -72.6074 116.748 -103.271 79.2969 -103.271 C 41.8945 -103.271 11.2793 -72.6074 11.2793 -35.2051 C 11.2793 2.19727 41.9434 32.8613 79.3457 32.8613 Z M 79.3457 0 C 76.2695 0 73.8281 -1.07422 71.7773 -3.32031 L 50.5371 -26.0254 C 48.7305 -27.9297 48.0957 -29.541 48.0957 -31.9824 C 48.0957 -36.3281 51.2695 -39.3555 55.8105 -39.3555 C 58.0078 -39.3555 60.3027 -38.3301 61.5234 -36.7676 L 67.334 -29.8828 L 71.1426 -24.1211 L 70.2148 -37.0117 L 70.2148 -61.8164 C 70.2148 -66.748 74.2188 -70.3125 79.3457 -70.3125 C 84.4727 -70.3125 88.4766 -66.748 88.4766 -61.8164 L 88.4766 -37.0117 L 87.5977 -24.1211 L 91.4551 -30.127 L 97.1191 -36.7676 C 98.4863 -38.3789 100.732 -39.3555 102.881 -39.3555 C 107.422 -39.3555 110.596 -36.3281 110.596 -31.9824 C 110.596 -29.541 109.912 -27.9297 108.154 -26.0254 L 86.9141 -3.32031 C 84.9121 -1.12305 82.4219 0 79.3457 0 Z"/>
  </g>
  <g id="Heavy-L" transform="matrix(1 0 0 1 2558.39 1556)">
   <path d="M 78.2715 31.7871 C 115.088 31.7871 145.312 1.61133 145.312 -35.2051 C 145.312 -72.0215 115.039 -102.197 78.2715 -102.197 C 41.4551 -102.197 11.2793 -72.0215 11.2793 -35.2051 C 11.2793 1.61133 41.5039 31.7871 78.2715 31.7871 Z M 78.2715 0 C 75.6348 0 73.5352 -0.976562 71.6797 -2.92969 L 49.8535 -25.8789 C 48.291 -27.5391 47.7051 -29.0039 47.7051 -31.2012 C 47.7051 -35.0586 50.5371 -37.8418 54.5898 -37.8418 C 56.5918 -37.8418 58.5938 -36.9141 59.7168 -35.5469 L 66.4551 -27.9785 L 71.0938 -21.582 L 70.2637 -34.5703 L 70.2637 -62.793 C 70.2637 -67.1875 73.7793 -70.3125 78.2715 -70.3125 C 82.8125 -70.3125 86.3281 -67.1875 86.3281 -62.793 L 86.3281 -34.5703 L 85.5469 -21.5332 L 90.1855 -28.125 L 96.875 -35.5469 C 98.0469 -36.9141 100 -37.8418 102.002 -37.8418 C 106.055 -37.8418 108.887 -35.0586 108.887 -31.2012 C 108.887 -29.0039 108.252 -27.5391 106.738 -25.8789 L 84.9121 -2.92969 C 83.1055 -0.976562 80.957 0 78.2715 0 Z"/>
  </g>
  <g id="Bold-L" transform="matrix(1 0 0 1 2262.88 1556)">
   <path d="M 77.0996 30.6152 C 113.232 30.6152 142.92 0.878906 142.92 -35.2051 C 142.92 -71.3379 113.184 -101.025 77.0508 -101.025 C 40.9668 -101.025 11.2793 -71.3379 11.2793 -35.2051 C 11.2793 0.878906 41.0156 30.6152 77.0996 30.6152 Z M 77.0996 -0.0488281 C 74.9512 -0.0488281 73.1934 -0.830078 71.582 -2.49023 L 49.0723 -25.7812 C 47.8027 -27.0996 47.3145 -28.418 47.3145 -30.2734 C 47.3145 -33.6426 49.7559 -36.1328 53.2715 -36.1328 C 54.9805 -36.1328 56.6895 -35.3027 57.666 -34.1797 L 65.4785 -25.7812 L 70.9961 -18.75 L 70.3125 -31.8359 L 70.3125 -63.8672 C 70.3125 -67.627 73.2422 -70.3125 77.0996 -70.3125 C 80.957 -70.3125 83.8867 -67.627 83.8867 -63.8672 L 83.8867 -31.8359 L 83.252 -18.7012 L 88.8184 -25.8789 L 96.5332 -34.1797 C 97.6074 -35.3516 99.2676 -36.1328 100.977 -36.1328 C 104.492 -36.1328 106.982 -33.6426 106.982 -30.2734 C 106.982 -28.418 106.396 -27.0996 105.127 -25.7812 L 82.6172 -2.49023 C 81.0547 -0.878906 79.2969 -0.0488281 77.0996 -0.0488281 Z"/>
  </g>
  <g id="Semibold-L" transform="matrix(1 0 0 1 1966.97 1556)">
   <path d="M 76.2695 29.7852 C 111.914 29.7852 141.309 0.439453 141.309 -35.2051 C 141.309 -70.8496 111.865 -100.244 76.2695 -100.244 C 40.625 -100.244 11.2793 -70.8496 11.2793 -35.2051 C 11.2793 0.439453 40.6738 29.7852 76.2695 29.7852 Z M 76.2695 -0.0488281 C 74.4629 -0.0488281 72.998 -0.732422 71.5332 -2.19727 L 48.584 -25.6836 C 47.4609 -26.8555 46.9727 -28.0273 46.9727 -29.6387 C 46.9727 -32.666 49.2188 -34.9121 52.3438 -34.9121 C 53.9062 -34.9121 55.3711 -34.2285 56.2988 -33.2031 L 64.7949 -24.2676 L 70.9473 -16.7969 L 70.3613 -29.9316 L 70.3613 -64.5996 C 70.3613 -67.9688 72.9004 -70.2637 76.2695 -70.2637 C 79.6875 -70.2637 82.2266 -67.9688 82.2266 -64.5996 L 82.2266 -29.9316 L 81.6406 -16.748 L 87.8418 -24.3652 L 96.3379 -33.2031 C 97.2656 -34.2773 98.7305 -34.9121 100.293 -34.9121 C 103.418 -34.9121 105.664 -32.666 105.664 -29.6387 C 105.664 -28.0273 105.078 -26.8555 104.053 -25.6836 L 81.0547 -2.19727 C 79.6387 -0.78125 78.125 -0.0488281 76.2695 -0.0488281 Z"/>
  </g>
  <g id="Medium-L" transform="matrix(1 0 0 1 1670.87 1556)">
   <path d="M 75.6836 29.1992 C 110.938 29.1992 140.088 0.0488281 140.088 -35.2051 C 140.088 -70.459 110.889 -99.6094 75.6348 -99.6094 C 40.3809 -99.6094 11.2793 -70.459 11.2793 -35.2051 C 11.2793 0.0488281 40.3809 29.1992 75.6836 29.1992 Z M 75.6836 -0.0488281 C 74.1211 -0.0488281 72.8027 -0.634766 71.4844 -2.00195 L 48.1934 -25.5859 C 47.2168 -26.6113 46.7773 -27.7344 46.7773 -29.1992 C 46.7773 -31.9336 48.7793 -34.0332 51.6113 -34.0332 C 53.0762 -34.0332 54.3945 -33.3984 55.2246 -32.4707 L 64.3066 -23.1445 L 70.9473 -15.332 L 70.4102 -28.5156 L 70.4102 -65.1367 C 70.4102 -68.1641 72.6562 -70.2637 75.6836 -70.2637 C 78.7109 -70.2637 80.957 -68.1641 80.957 -65.1367 L 80.957 -28.5156 L 80.4199 -15.2344 L 87.1582 -23.1934 L 96.1426 -32.4707 C 97.0215 -33.4473 98.3398 -34.0332 99.7559 -34.0332 C 102.588 -34.0332 104.639 -31.9336 104.639 -29.1992 C 104.639 -27.7344 104.102 -26.6113 103.223 -25.5859 L 79.8828 -2.00195 C 78.6133 -0.683594 77.2949 -0.0488281 75.6836 -0.0488281 Z"/>
  </g>
  <g id="Regular-L" transform="matrix(1 0 0 1 1374.97 1556)">
   <path d="M 74.8535 28.3691 C 109.668 28.3691 138.477 -0.390625 138.477 -35.2051 C 138.477 -70.0195 109.619 -98.7793 74.8047 -98.7793 C 40.0391 -98.7793 11.2793 -70.0195 11.2793 -35.2051 C 11.2793 -0.390625 40.0879 28.3691 74.8535 28.3691 Z M 74.8535 -0.0976562 C 73.6328 -0.0976562 72.6074 -0.537109 71.4355 -1.70898 L 47.6562 -25.5371 C 46.875 -26.3184 46.4844 -27.3438 46.4844 -28.5645 C 46.4844 -30.957 48.2422 -32.8613 50.6836 -32.8613 C 51.9531 -32.8613 53.0762 -32.2754 53.8574 -31.543 L 63.623 -21.6797 L 70.8984 -13.3789 L 70.4102 -26.6602 L 70.4102 -65.8691 C 70.4102 -68.5059 72.3145 -70.2637 74.8535 -70.2637 C 77.4902 -70.2637 79.2969 -68.5059 79.2969 -65.8691 L 79.2969 -26.6602 L 78.8574 -13.3301 L 86.1816 -21.6797 L 95.9473 -31.543 C 96.7285 -32.3242 97.8027 -32.8613 99.0723 -32.8613 C 101.514 -32.8613 103.32 -30.957 103.32 -28.5645 C 103.32 -27.3438 102.832 -26.3184 102.1 -25.5371 L 78.3691 -1.70898 C 77.1973 -0.585938 76.1719 -0.0976562 74.8535 -0.0976562 Z"/>
  </g>
  <g id="Light-L" transform="matrix(1 0 0 1 1079.18 1556)">
   <path d="M 73.9258 27.4902 C 108.301 27.4902 136.621 -0.830078 136.621 -35.1562 C 136.621 -69.5312 108.252 -97.8516 73.9258 -97.8516 C 39.5508 -97.8516 11.2793 -69.5312 11.2793 -35.1562 C 11.2793 -0.830078 39.5996 27.4902 73.9258 27.4902 Z M 73.9258 -0.488281 C 72.998 -0.488281 72.2168 -0.830078 71.3379 -1.70898 L 46.7773 -26.2695 C 46.1914 -26.9531 45.8984 -27.6855 45.8984 -28.6133 C 45.8984 -30.4688 47.2168 -31.8848 49.1211 -31.8848 C 50.0977 -31.8848 50.9277 -31.4941 51.5625 -30.8594 L 63.0859 -19.2871 L 70.8496 -10.8887 L 70.5078 -22.4609 L 70.5078 -66.5039 C 70.5078 -68.5547 71.9238 -69.9219 73.9258 -69.9219 C 75.9766 -69.9219 77.3926 -68.5547 77.3926 -66.5039 L 77.3926 -22.4609 L 77.0508 -10.791 L 84.8633 -19.2871 L 96.3867 -30.8594 C 97.0215 -31.4941 97.8516 -31.8848 98.8281 -31.8848 C 100.684 -31.8848 102.1 -30.4688 102.1 -28.6133 C 102.1 -27.6855 101.709 -26.9531 101.123 -26.2695 L 76.5625 -1.70898 C 75.6836 -0.878906 74.9023 -0.488281 73.9258 -0.488281 Z"/>
  </g>
  <g id="Thin-L" transform="matrix(1 0 0 1 783.693 1556)">
   <path d="M 72.7051 26.3184 C 106.494 26.3184 134.18 -1.36719 134.18 -35.1074 C 134.18 -68.8965 106.494 -96.582 72.7051 -96.582 C 38.9648 -96.582 11.2793 -68.8965 11.2793 -35.1074 C 11.2793 -1.36719 38.9648 26.3184 72.7051 26.3184 Z M 72.7051 -1.02539 C 72.2168 -1.02539 71.6797 -1.2207 71.2402 -1.66016 L 45.6543 -27.2949 C 45.3125 -27.7344 45.1172 -28.1738 45.1172 -28.7109 C 45.1172 -29.834 45.8984 -30.6152 47.0703 -30.6152 C 47.6562 -30.6152 48.0469 -30.4199 48.5352 -29.9805 L 62.3535 -16.0645 L 70.8008 -7.61719 L 70.6055 -16.9434 L 70.6055 -67.2852 C 70.6055 -68.6035 71.4844 -69.4336 72.7051 -69.4336 C 74.0234 -69.4336 74.8535 -68.6035 74.8535 -67.2852 L 74.8535 -16.9434 L 74.6582 -7.51953 L 83.1543 -16.0645 L 97.0215 -29.9805 C 97.4609 -30.4199 97.9004 -30.6152 98.4863 -30.6152 C 99.6094 -30.6152 100.439 -29.834 100.439 -28.7109 C 100.439 -28.1738 100.195 -27.7344 99.8535 -27.2949 L 74.2188 -1.66016 C 73.7305 -1.2207 73.2422 -1.02539 72.7051 -1.02539 Z"/>
  </g>
  <g id="Ultralight-L" transform="matrix(1 0 0 1 487.616 1556)">
   <path d="M 72.1191 25.7324 C 105.566 25.7324 132.91 -1.61133 132.91 -35.1074 C 132.91 -68.5547 105.566 -95.8984 72.1191 -95.8984 C 38.623 -95.8984 11.2793 -68.5547 11.2793 -35.1074 C 11.2793 -1.61133 38.623 25.7324 72.1191 25.7324 Z M 72.1191 -1.31836 C 71.7773 -1.31836 71.3867 -1.41602 71.1426 -1.66016 L 45.1172 -27.7832 C 44.8242 -28.1738 44.6777 -28.3691 44.6777 -28.7598 C 44.6777 -29.4922 45.2148 -29.9805 45.9961 -29.9805 C 46.3867 -29.9805 46.582 -29.834 46.9727 -29.4922 L 62.0117 -14.4531 L 70.8008 -5.9082 L 70.6543 -14.1113 L 70.6543 -67.7246 C 70.6543 -68.6523 71.2402 -69.1895 72.1191 -69.1895 C 73.0469 -69.1895 73.5352 -68.6523 73.5352 -67.7246 L 73.5352 -14.1113 L 73.4375 -5.81055 L 82.2754 -14.4531 L 97.3145 -29.4922 C 97.6562 -29.834 97.9004 -29.9805 98.291 -29.9805 C 99.0723 -29.9805 99.5605 -29.4922 99.5605 -28.7598 C 99.5605 -28.3691 99.4629 -28.1738 99.1699 -27.7832 L 73.0469 -1.66016 C 72.7051 -1.41602 72.4121 -1.31836 72.1191 -1.31836 Z"/>
  </g>
  <g id="Black-M" transform="matrix(1 0 0 1 2870.97 1126)">
   <path d="M 62.4023 18.457 C 91.9922 18.457 116.113 -5.61523 116.113 -35.2051 C 116.113 -64.7949 91.9922 -88.8672 62.4023 -88.8672 C 32.8125 -88.8672 8.74023 -64.7949 8.74023 -35.2051 C 8.74023 -5.61523 32.8125 18.457 62.4023 18.457 Z M 62.4023 -8.10547 C 59.6191 -8.10547 57.373 -9.13086 55.6641 -10.9863 L 39.6484 -28.6621 C 37.9883 -30.4199 37.5 -31.7383 37.5 -33.8379 C 37.5 -37.5 40.1367 -39.9902 43.9941 -39.9902 C 45.8984 -39.9902 47.8516 -39.1113 48.9258 -37.7441 L 53.0762 -32.4219 L 55.1758 -28.7109 L 54.3457 -37.6465 L 54.3457 -54.8828 C 54.3457 -59.1309 57.959 -62.2559 62.4023 -62.2559 C 66.8945 -62.2559 70.459 -59.1309 70.459 -54.8828 L 70.459 -37.6465 L 69.7266 -28.7109 L 71.8262 -32.7148 L 75.9277 -37.7441 C 77.0508 -39.1113 79.0039 -39.9902 80.8105 -39.9902 C 84.7168 -39.9902 87.3535 -37.5 87.3535 -33.8379 C 87.3535 -31.7383 86.8652 -30.4199 85.2051 -28.6621 L 69.1406 -10.9863 C 67.4805 -9.13086 65.1855 -8.10547 62.4023 -8.10547 Z"/>
  </g>
  <g id="Heavy-M" transform="matrix(1 0 0 1 2575.19 1126)">
   <path d="M 61.5234 17.5781 C 90.5273 17.5781 114.258 -6.15234 114.258 -35.2051 C 114.258 -64.2578 90.5273 -87.9883 61.4746 -87.9883 C 32.4707 -87.9883 8.74023 -64.2578 8.74023 -35.2051 C 8.74023 -6.15234 32.4707 17.5781 61.5234 17.5781 Z M 61.5234 -8.00781 C 59.1309 -8.00781 57.1777 -8.88672 55.6152 -10.5957 L 39.1113 -28.3203 C 37.6953 -29.834 37.207 -31.0547 37.207 -32.959 C 37.207 -36.2305 39.5996 -38.5742 43.1152 -38.5742 C 44.8242 -38.5742 46.5332 -37.793 47.5098 -36.5723 L 52.2461 -30.957 L 55.127 -26.5625 L 54.3945 -36.084 L 54.3945 -55.7617 C 54.3945 -59.5703 57.5195 -62.3047 61.5234 -62.3047 C 65.4785 -62.3047 68.6035 -59.5703 68.6035 -55.7617 L 68.6035 -36.084 L 67.9199 -26.5625 L 70.8008 -31.1523 L 75.4883 -36.5723 C 76.5137 -37.793 78.2227 -38.5742 79.8828 -38.5742 C 83.3984 -38.5742 85.791 -36.2305 85.791 -32.959 C 85.791 -31.0547 85.3027 -29.834 83.8867 -28.3203 L 67.3828 -10.5957 C 65.8691 -8.88672 63.916 -8.00781 61.5234 -8.00781 Z"/>
  </g>
  <g id="Bold-M" transform="matrix(1 0 0 1 2279.5 1126)">
   <path d="M 60.498 16.5039 C 88.8672 16.5039 112.207 -6.78711 112.207 -35.2051 C 112.207 -63.623 88.8672 -86.9629 60.4492 -86.9629 C 32.0312 -86.9629 8.74023 -63.623 8.74023 -35.2051 C 8.74023 -6.78711 32.0801 16.5039 60.498 16.5039 Z M 60.498 -7.91016 C 58.5449 -7.91016 56.9336 -8.64258 55.5664 -10.1074 L 38.5254 -27.9785 C 37.3535 -29.1992 36.9141 -30.3223 36.9141 -31.9336 C 36.9141 -34.8633 39.0625 -36.9629 42.0898 -36.9629 C 43.6035 -36.9629 45.1172 -36.2793 45.9473 -35.2539 L 51.3184 -29.248 L 55.0781 -24.2188 L 54.4434 -34.3262 L 54.4434 -56.7383 C 54.4434 -60.0586 57.0801 -62.4023 60.498 -62.4023 C 63.8672 -62.4023 66.5039 -60.0586 66.5039 -56.7383 L 66.5039 -34.3262 L 65.918 -24.1699 L 69.6777 -29.3945 L 75 -35.2539 C 75.9277 -36.2793 77.3926 -36.9629 78.8574 -36.9629 C 81.9336 -36.9629 84.082 -34.8633 84.082 -31.9336 C 84.082 -30.3223 83.5938 -29.1992 82.4707 -27.9785 L 65.4297 -10.1074 C 64.0625 -8.69141 62.4512 -7.91016 60.498 -7.91016 Z"/>
  </g>
  <g id="Semibold-M" transform="matrix(1 0 0 1 1983.5 1126)">
   <path d="M 59.7656 15.8203 C 87.7441 15.8203 110.791 -7.22656 110.791 -35.2051 C 110.791 -63.1836 87.6953 -86.2793 59.7656 -86.2793 C 31.7871 -86.2793 8.74023 -63.1836 8.74023 -35.2051 C 8.74023 -7.22656 31.7871 15.8203 59.7656 15.8203 Z M 59.7656 -7.86133 C 58.1055 -7.86133 56.7871 -8.49609 55.5176 -9.81445 L 38.1348 -27.6855 C 37.1094 -28.7598 36.7188 -29.7852 36.7188 -31.25 C 36.7188 -33.8867 38.6719 -35.8398 41.4062 -35.8398 C 42.7734 -35.8398 44.0918 -35.2539 44.9219 -34.3262 L 50.6836 -28.125 L 55.0293 -22.5586 L 54.4922 -33.1055 L 54.4922 -57.4219 C 54.4922 -60.4004 56.7871 -62.5 59.7656 -62.5 C 62.793 -62.5 65.0879 -60.4004 65.0879 -57.4219 L 65.0879 -33.1055 L 64.5508 -22.5586 L 68.8965 -28.1738 L 74.6582 -34.3262 C 75.4883 -35.2539 76.8066 -35.8398 78.1738 -35.8398 C 80.9082 -35.8398 82.8613 -33.8867 82.8613 -31.25 C 82.8613 -29.7852 82.4219 -28.7598 81.4453 -27.6855 L 64.1113 -9.81445 C 62.8418 -8.49609 61.4746 -7.86133 59.7656 -7.86133 Z"/>
  </g>
  <g id="Medium-M" transform="matrix(1 0 0 1 1687.3 1126)">
   <path d="M 59.2285 15.2832 C 86.9141 15.2832 109.766 -7.56836 109.766 -35.2051 C 109.766 -62.8906 86.8652 -85.7422 59.1797 -85.7422 C 31.543 -85.7422 8.74023 -62.8906 8.74023 -35.2051 C 8.74023 -7.56836 31.5918 15.2832 59.2285 15.2832 Z M 59.2285 -7.8125 C 57.8125 -7.8125 56.6406 -8.34961 55.4688 -9.57031 L 37.793 -27.5391 C 36.9629 -28.418 36.5723 -29.3945 36.5723 -30.7129 C 36.5723 -33.1543 38.3789 -35.0098 40.8691 -35.0098 C 42.1387 -35.0098 43.3594 -34.4238 44.0918 -33.6426 L 50.2441 -27.2461 L 54.9805 -21.3379 L 54.4922 -32.1777 L 54.4922 -57.959 C 54.4922 -60.6445 56.543 -62.5488 59.2285 -62.5488 C 61.9629 -62.5488 63.9648 -60.6445 63.9648 -57.959 L 63.9648 -32.1777 L 63.4766 -21.2891 L 68.3105 -27.2949 L 74.4141 -33.6426 C 75.1953 -34.4727 76.3672 -35.0098 77.6367 -35.0098 C 80.127 -35.0098 81.9824 -33.1543 81.9824 -30.7129 C 81.9824 -29.3945 81.4941 -28.418 80.6641 -27.5391 L 63.0859 -9.57031 C 61.9141 -8.39844 60.7422 -7.8125 59.2285 -7.8125 Z"/>
  </g>
  <g id="Regular-M" transform="matrix(1 0 0 1 1391.3 1126)">
   <path d="M 58.5449 14.5508 C 85.791 14.5508 108.35 -8.00781 108.35 -35.2539 C 108.35 -62.4512 85.7422 -85.0586 58.4961 -85.0586 C 31.2988 -85.0586 8.74023 -62.4512 8.74023 -35.2539 C 8.74023 -8.00781 31.3477 14.5508 58.5449 14.5508 Z M 58.5449 -7.76367 C 57.4219 -7.76367 56.4941 -8.20312 55.4199 -9.27734 L 37.4023 -27.2949 C 36.7188 -27.9785 36.377 -28.9062 36.377 -30.0293 C 36.377 -32.2266 37.9883 -33.9355 40.1855 -33.9355 C 41.3574 -33.9355 42.3828 -33.3984 43.0176 -32.7637 L 49.6094 -26.0742 L 54.9805 -19.7266 L 54.541 -30.957 L 54.541 -58.6426 C 54.541 -60.9863 56.2012 -62.5977 58.5449 -62.5977 C 60.8887 -62.5977 62.5488 -60.9863 62.5488 -58.6426 L 62.5488 -30.957 L 62.1582 -19.6777 L 67.5293 -26.0742 L 74.0723 -32.7637 C 74.8047 -33.4473 75.7812 -33.9355 76.9043 -33.9355 C 79.1504 -33.9355 80.8105 -32.2266 80.8105 -30.0293 C 80.8105 -28.9062 80.3223 -27.9785 79.6875 -27.2949 L 61.7188 -9.27734 C 60.6934 -8.25195 59.7168 -7.76367 58.5449 -7.76367 Z"/>
  </g>
  <g id="Light-M" transform="matrix(1 0 0 1 1095.42 1126)">
   <path d="M 57.7148 13.7695 C 84.5215 13.7695 106.689 -8.39844 106.689 -35.2051 C 106.689 -62.0117 84.5215 -84.1797 57.666 -84.1797 C 30.8594 -84.1797 8.74023 -62.0117 8.74023 -35.2051 C 8.74023 -8.39844 30.9082 13.7695 57.7148 13.7695 Z M 57.7148 -8.10547 C 56.8359 -8.10547 56.1523 -8.44727 55.3223 -9.22852 L 36.6699 -27.9785 C 36.1328 -28.5156 35.8398 -29.248 35.8398 -30.0781 C 35.8398 -31.7871 37.0605 -33.0566 38.7695 -33.0566 C 39.6484 -33.0566 40.4297 -32.666 40.9668 -32.1289 L 49.1211 -23.9258 L 54.9316 -17.4805 L 54.5898 -27.1973 L 54.5898 -59.1797 C 54.5898 -61.0352 55.9082 -62.2559 57.7148 -62.2559 C 59.5703 -62.2559 60.8398 -61.0352 60.8398 -59.1797 L 60.8398 -27.1973 L 60.498 -17.4316 L 66.3574 -23.9258 L 74.5117 -32.1289 C 75.0488 -32.7148 75.7812 -33.0566 76.709 -33.0566 C 78.418 -33.0566 79.6875 -31.7871 79.6875 -30.0781 C 79.6875 -29.248 79.3457 -28.5156 78.8086 -27.9785 L 60.1562 -9.22852 C 59.3262 -8.49609 58.5938 -8.10547 57.7148 -8.10547 Z"/>
  </g>
  <g id="Thin-M" transform="matrix(1 0 0 1 799.806 1126)">
   <path d="M 56.6406 12.7441 C 82.9102 12.7441 104.492 -8.83789 104.492 -35.1562 C 104.492 -61.4746 82.9102 -83.0566 56.5918 -83.0566 C 30.3223 -83.0566 8.74023 -61.4746 8.74023 -35.1562 C 8.74023 -8.83789 30.3223 12.7441 56.6406 12.7441 Z M 56.6406 -8.59375 C 56.1523 -8.59375 55.6641 -8.78906 55.2246 -9.22852 L 35.6445 -28.8574 C 35.3027 -29.248 35.1074 -29.6387 35.1074 -30.1758 C 35.1074 -31.1523 35.8398 -31.9336 36.9141 -31.9336 C 37.4512 -31.9336 37.8906 -31.7383 38.2324 -31.3477 L 48.4863 -21.0938 L 54.8828 -14.5508 L 54.6875 -22.2656 L 54.6875 -59.9121 C 54.6875 -61.084 55.4688 -61.8164 56.6406 -61.8164 C 57.8125 -61.8164 58.5449 -61.084 58.5449 -59.9121 L 58.5449 -22.2656 L 58.3496 -14.4531 L 64.7949 -21.0938 L 75.0488 -31.3477 C 75.4395 -31.7383 75.8301 -31.9336 76.3672 -31.9336 C 77.4414 -31.9336 78.1738 -31.1523 78.1738 -30.1758 C 78.1738 -29.6387 77.9785 -29.248 77.6367 -28.8574 L 58.0078 -9.22852 C 57.5684 -8.78906 57.1289 -8.59375 56.6406 -8.59375 Z"/>
  </g>
  <g id="Ultralight-M" transform="matrix(1 0 0 1 503.656 1126)">
   <path d="M 56.0547 12.207 C 82.0801 12.207 103.369 -9.08203 103.369 -35.1562 C 103.369 -61.1816 82.0801 -82.4707 56.0547 -82.4707 C 30.0293 -82.4707 8.74023 -61.1816 8.74023 -35.1562 C 8.74023 -9.08203 30.0293 12.207 56.0547 12.207 Z M 56.0547 -8.83789 C 55.7617 -8.83789 55.4199 -8.98438 55.1758 -9.22852 L 35.1074 -29.2969 C 34.8633 -29.6387 34.7656 -29.834 34.7656 -30.2246 C 34.7656 -30.8594 35.2539 -31.3477 35.9375 -31.3477 C 36.3281 -31.3477 36.5723 -31.25 36.8652 -30.9082 L 48.1445 -19.6289 L 54.834 -12.9883 L 54.7363 -19.7266 L 54.7363 -60.3027 C 54.7363 -61.1328 55.2734 -61.6211 56.0547 -61.6211 C 56.8848 -61.6211 57.373 -61.1328 57.373 -60.3027 L 57.373 -19.7266 L 57.2754 -12.9395 L 64.0137 -19.6289 L 75.3418 -30.9082 C 75.6348 -31.25 75.8789 -31.3477 76.2207 -31.3477 C 76.9531 -31.3477 77.4414 -30.8594 77.4414 -30.2246 C 77.4414 -29.834 77.2949 -29.6387 77.0508 -29.2969 L 56.9336 -9.22852 C 56.6406 -8.98438 56.3477 -8.83789 56.0547 -8.83789 Z"/>
  </g>
  <g id="Black-S" transform="matrix(1 0 0 1 2884.57 696)">
   <path d="M 48.8281 6.78711 C 71.9727 6.78711 90.8203 -12.0605 90.8203 -35.2051 C 90.8203 -58.3496 71.9727 -77.1973 48.8281 -77.1973 C 25.6836 -77.1973 6.83594 -58.3496 6.83594 -35.2051 C 6.83594 -12.0605 25.6836 6.78711 48.8281 6.78711 Z M 48.8281 -13.9648 C 46.6797 -13.9648 44.9219 -14.7461 43.6035 -16.2109 L 31.0059 -30.0293 C 29.7363 -31.3965 29.3457 -32.4219 29.3457 -34.082 C 29.3457 -36.9141 31.3965 -38.8672 34.4238 -38.8672 C 35.8887 -38.8672 37.4023 -38.1836 38.2324 -37.1094 L 41.5039 -32.959 L 43.2129 -29.9805 L 42.5781 -37.0605 L 42.5781 -50.6836 C 42.5781 -54.0039 45.3613 -56.3965 48.8281 -56.3965 C 52.2949 -56.3965 55.0781 -54.0039 55.0781 -50.6836 L 55.0781 -37.0605 L 54.4922 -29.9805 L 56.2012 -33.1543 L 59.4238 -37.1094 C 60.3027 -38.1836 61.8164 -38.8672 63.2324 -38.8672 C 66.2598 -38.8672 68.3105 -36.9141 68.3105 -34.082 C 68.3105 -32.4219 67.9199 -31.3965 66.6504 -30.0293 L 54.0527 -16.2109 C 52.7344 -14.7461 50.9766 -13.9648 48.8281 -13.9648 Z"/>
  </g>
  <g id="Heavy-S" transform="matrix(1 0 0 1 2588.47 696)">
   <path d="M 48.2422 6.15234 C 70.9961 6.15234 89.5996 -12.4512 89.5996 -35.2051 C 89.5996 -57.959 70.9961 -76.6113 48.1934 -76.6113 C 25.4395 -76.6113 6.83594 -57.959 6.83594 -35.2051 C 6.83594 -12.4512 25.4395 6.15234 48.2422 6.15234 Z M 48.2422 -13.8672 C 46.3379 -13.8672 44.8242 -14.5508 43.5547 -15.918 L 30.7129 -29.6875 C 29.5898 -30.9082 29.1992 -31.8848 29.1992 -33.3984 C 29.1992 -35.9863 31.1035 -37.8906 33.8867 -37.8906 C 35.2539 -37.8906 36.6211 -37.2559 37.4023 -36.2793 L 40.918 -32.0312 L 43.1641 -28.6133 L 42.627 -36.2793 L 42.627 -51.3184 C 42.627 -54.3457 45.0684 -56.4941 48.2422 -56.4941 C 51.3672 -56.4941 53.8574 -54.3457 53.8574 -51.3184 L 53.8574 -36.2793 L 53.3203 -28.6133 L 55.5664 -32.1777 L 59.0332 -36.2793 C 59.8633 -37.2559 61.2305 -37.8906 62.5488 -37.8906 C 65.332 -37.8906 67.2363 -35.9863 67.2363 -33.3984 C 67.2363 -31.8848 66.8457 -30.9082 65.7715 -29.6875 L 52.8809 -15.918 C 51.6602 -14.5508 50.0977 -13.8672 48.2422 -13.8672 Z"/>
  </g>
  <g id="Bold-S" transform="matrix(1 0 0 1 2292.44 696)">
   <path d="M 47.5586 5.46875 C 69.873 5.46875 88.2324 -12.8906 88.2324 -35.2051 C 88.2324 -57.5684 69.873 -75.9277 47.5098 -75.9277 C 25.1953 -75.9277 6.83594 -57.5684 6.83594 -35.2051 C 6.83594 -12.8906 25.1953 5.46875 47.5586 5.46875 Z M 47.5586 -13.7695 C 45.9473 -13.7695 44.6777 -14.3066 43.5059 -15.5273 L 30.3223 -29.3457 C 29.3945 -30.3223 29.0527 -31.2988 29.0527 -32.6172 C 29.0527 -35.0098 30.8105 -36.7676 33.3008 -36.7676 C 34.5215 -36.7676 35.7422 -36.1816 36.4746 -35.3516 L 40.2832 -31.0547 L 43.1152 -27.0508 L 42.627 -35.4004 L 42.627 -52.002 C 42.627 -54.6875 44.7754 -56.5918 47.5586 -56.5918 C 50.293 -56.5918 52.4414 -54.6875 52.4414 -52.002 L 52.4414 -35.4004 L 51.9531 -27.0508 L 54.834 -31.1523 L 58.6426 -35.3516 C 59.375 -36.1816 60.5957 -36.7676 61.8164 -36.7676 C 64.3066 -36.7676 66.0645 -35.0098 66.0645 -32.6172 C 66.0645 -31.2988 65.6738 -30.3223 64.7461 -29.3457 L 51.5625 -15.5273 C 50.4395 -14.3555 49.1699 -13.7695 47.5586 -13.7695 Z"/>
  </g>
  <g id="Semibold-S" transform="matrix(1 0 0 1 1996.2 696)">
   <path d="M 47.0703 4.98047 C 69.0918 4.98047 87.3047 -13.1836 87.3047 -35.2539 C 87.3047 -57.2754 69.0918 -75.4883 47.0215 -75.4883 C 25 -75.4883 6.83594 -57.2754 6.83594 -35.2539 C 6.83594 -13.1836 25.0488 4.98047 47.0703 4.98047 Z M 47.0703 -13.6719 C 45.7031 -13.6719 44.5801 -14.1602 43.5059 -15.332 L 30.0781 -29.1016 C 29.248 -29.9316 28.9062 -30.8594 28.9062 -32.0801 C 28.9062 -34.3262 30.5664 -35.9863 32.8613 -35.9863 C 34.0332 -35.9863 35.1562 -35.4492 35.8398 -34.7168 L 39.8438 -30.3223 L 43.1152 -26.0254 L 42.6758 -34.7656 L 42.6758 -52.4902 C 42.6758 -54.9316 44.5801 -56.6895 47.0703 -56.6895 C 49.6094 -56.6895 51.5137 -54.9316 51.5137 -52.4902 L 51.5137 -34.7656 L 51.0742 -25.9766 L 54.3457 -30.4199 L 58.3496 -34.7168 C 59.0332 -35.498 60.1074 -35.9863 61.2793 -35.9863 C 63.5742 -35.9863 65.2832 -34.3262 65.2832 -32.0801 C 65.2832 -30.8594 64.8438 -29.9316 64.0625 -29.1016 L 50.6836 -15.332 C 49.6094 -14.209 48.4863 -13.6719 47.0703 -13.6719 Z"/>
  </g>
  <g id="Medium-S" transform="matrix(1 0 0 1 1699.83 696)">
   <path d="M 46.7285 4.63867 C 68.5547 4.63867 86.6211 -13.4277 86.6211 -35.2539 C 86.6211 -57.0312 68.5059 -75.1465 46.6797 -75.1465 C 24.8535 -75.1465 6.83594 -57.0312 6.83594 -35.2539 C 6.83594 -13.4277 24.9023 4.63867 46.7285 4.63867 Z M 46.7285 -13.623 C 45.5078 -13.623 44.5312 -14.0625 43.457 -15.1367 L 29.9316 -28.9062 C 29.1992 -29.6875 28.8574 -30.5176 28.8574 -31.6406 C 28.8574 -33.7891 30.4199 -35.4004 32.5684 -35.4004 C 33.6914 -35.4004 34.7168 -34.9121 35.3516 -34.2285 L 39.502 -29.7852 L 43.0664 -25.1953 L 42.6758 -34.3262 L 42.6758 -52.832 C 42.6758 -55.127 44.3848 -56.7383 46.7285 -56.7383 C 49.0234 -56.7383 50.7812 -55.127 50.7812 -52.832 L 50.7812 -34.3262 L 50.3418 -25.1953 L 53.9551 -29.834 L 58.1055 -34.2285 C 58.7891 -34.9121 59.7656 -35.4004 60.8887 -35.4004 C 63.0371 -35.4004 64.6484 -33.7891 64.6484 -31.6406 C 64.6484 -30.5176 64.209 -29.6875 63.5254 -28.9062 L 50 -15.1367 C 49.0234 -14.1113 47.998 -13.623 46.7285 -13.623 Z"/>
  </g>
  <g id="Regular-S" transform="matrix(1 0 0 1 1403.58 696)">
   <path d="M 46.2402 4.15039 C 67.7734 4.15039 85.6934 -13.7207 85.6934 -35.2539 C 85.6934 -56.7871 67.7246 -74.6582 46.1914 -74.6582 C 24.707 -74.6582 6.83594 -56.7871 6.83594 -35.2539 C 6.83594 -13.7207 24.7559 4.15039 46.2402 4.15039 Z M 46.2402 -13.5254 C 45.2148 -13.5254 44.4336 -13.916 43.457 -14.8926 L 29.6875 -28.6621 C 29.0527 -29.2969 28.7109 -30.127 28.7109 -31.1035 C 28.7109 -33.1055 30.1758 -34.6191 32.1777 -34.6191 C 33.2031 -34.6191 34.1309 -34.1797 34.668 -33.5938 L 39.0625 -29.1016 L 43.0664 -24.1699 L 42.6758 -33.6914 L 42.6758 -53.3203 C 42.6758 -55.3711 44.1895 -56.8359 46.2402 -56.8359 C 48.3398 -56.8359 49.8535 -55.3711 49.8535 -53.3203 L 49.8535 -33.6914 L 49.4629 -24.1211 L 53.4668 -29.1016 L 57.8125 -33.5938 C 58.4473 -34.2285 59.3262 -34.6191 60.3516 -34.6191 C 62.3535 -34.6191 63.8184 -33.1055 63.8184 -31.1035 C 63.8184 -30.127 63.4277 -29.2969 62.8418 -28.6621 L 49.1211 -14.8926 C 48.1934 -13.9648 47.3145 -13.5254 46.2402 -13.5254 Z"/>
  </g>
  <g id="Light-S" transform="matrix(1 0 0 1 1107.6 696)">
   <path d="M 45.5078 3.4668 C 66.6992 3.4668 84.2285 -14.0625 84.2285 -35.2051 C 84.2285 -56.3965 66.6504 -73.9258 45.5078 -73.9258 C 24.3164 -73.9258 6.83594 -56.3965 6.83594 -35.2051 C 6.83594 -14.0625 24.3652 3.4668 45.5078 3.4668 Z M 45.5078 -13.8672 C 44.7266 -13.8672 44.0918 -14.1602 43.3594 -14.8926 L 29.0039 -29.248 C 28.5156 -29.7852 28.2715 -30.4199 28.2715 -31.1523 C 28.2715 -32.666 29.3945 -33.8867 30.9082 -33.8867 C 31.6895 -33.8867 32.4219 -33.4961 32.8613 -33.0566 L 38.6719 -27.1973 L 43.0176 -22.168 L 42.7246 -30.3711 L 42.7246 -53.8086 C 42.7246 -55.4199 43.8965 -56.543 45.5078 -56.543 C 47.168 -56.543 48.291 -55.4199 48.291 -53.8086 L 48.291 -30.3711 L 47.998 -22.1191 L 52.4414 -27.1973 L 58.2031 -33.0566 C 58.6914 -33.5449 59.375 -33.8867 60.1562 -33.8867 C 61.6699 -33.8867 62.8418 -32.666 62.8418 -31.1523 C 62.8418 -30.4199 62.5 -29.7852 62.0605 -29.248 L 47.7051 -14.8926 C 46.9727 -14.1602 46.3379 -13.8672 45.5078 -13.8672 Z"/>
  </g>
  <g id="Thin-S" transform="matrix(1 0 0 1 811.867 696)">
   <path d="M 44.5801 2.53906 C 65.2832 2.53906 82.2754 -14.4531 82.2754 -35.2051 C 82.2754 -55.9082 65.2344 -72.9004 44.5312 -72.9004 C 23.8281 -72.9004 6.83594 -55.9082 6.83594 -35.2051 C 6.83594 -14.4531 23.877 2.53906 44.5801 2.53906 Z M 44.5801 -14.2578 C 44.0918 -14.2578 43.7012 -14.4531 43.2617 -14.8438 L 28.125 -30.0781 C 27.7832 -30.4199 27.6367 -30.7617 27.6367 -31.25 C 27.6367 -32.1777 28.3203 -32.8613 29.248 -32.8613 C 29.7363 -32.8613 30.127 -32.666 30.4688 -32.3242 L 38.0859 -24.707 L 43.0176 -19.5801 L 42.8223 -26.0254 L 42.8223 -54.4434 C 42.8223 -55.4688 43.5547 -56.1523 44.5801 -56.1523 C 45.6055 -56.1523 46.2891 -55.4688 46.2891 -54.4434 L 46.2891 -26.0254 L 46.1426 -19.5312 L 51.0742 -24.707 L 58.6914 -32.3242 C 59.0332 -32.666 59.375 -32.8613 59.9121 -32.8613 C 60.8398 -32.8613 61.5234 -32.1777 61.5234 -31.25 C 61.5234 -30.7617 61.3281 -30.4199 61.0352 -30.0781 L 45.8496 -14.8438 C 45.4102 -14.4531 45.0195 -14.2578 44.5801 -14.2578 Z"/>
  </g>
  <g id="Ultralight-S" transform="matrix(1 0 0 1 515.644 696)">
   <path d="M 44.043 2.05078 C 64.502 2.05078 81.2988 -14.6973 81.2988 -35.1562 C 81.2988 -55.6152 64.502 -72.3633 44.043 -72.3633 C 23.584 -72.3633 6.83594 -55.6152 6.83594 -35.1562 C 6.83594 -14.6973 23.584 2.05078 44.043 2.05078 Z M 44.043 -14.502 C 43.7988 -14.502 43.457 -14.5996 43.2129 -14.8438 L 27.6367 -30.4688 C 27.4414 -30.7129 27.2949 -30.957 27.2949 -31.2988 C 27.2949 -31.8848 27.7832 -32.3242 28.418 -32.3242 C 28.7598 -32.3242 28.9551 -32.2266 29.248 -31.9824 L 37.793 -23.3887 L 42.9688 -18.2129 L 42.8711 -23.7793 L 42.8711 -54.7363 C 42.8711 -55.5176 43.3594 -55.957 44.043 -55.957 C 44.8242 -55.957 45.2637 -55.5176 45.2637 -54.7363 L 45.2637 -23.7793 L 45.166 -18.1641 L 50.3418 -23.3887 L 58.9355 -31.9824 C 59.1797 -32.2266 59.4238 -32.3242 59.7656 -32.3242 C 60.4004 -32.3242 60.8398 -31.8848 60.8398 -31.2988 C 60.8398 -30.957 60.7422 -30.7129 60.498 -30.4688 L 44.873 -14.8438 C 44.6289 -14.5996 44.3359 -14.502 44.043 -14.502 Z"/>
  </g>
 </g>
</svg>
